<?xml version="1.0" encoding="UTF-8" standalone="no"?>
<!-- Created with Inkscape (http://www.inkscape.org/) -->

<svg
   xmlns:dc="http://purl.org/dc/elements/1.1/"
   xmlns:cc="http://creativecommons.org/ns#"
   xmlns:rdf="http://www.w3.org/1999/02/22-rdf-syntax-ns#"
   xmlns:svg="http://www.w3.org/2000/svg"
   xmlns="http://www.w3.org/2000/svg"
   xmlns:sodipodi="http://sodipodi.sourceforge.net/DTD/sodipodi-0.dtd"
   xmlns:inkscape="http://www.inkscape.org/namespaces/inkscape"
   width="210mm"
   height="297mm"
   id="svg2"
   version="1.1"
   inkscape:version="0.48.4 r9939"
   sodipodi:docname="perlmvc-problem-resolving.svg"
   inkscape:export-filename="/tmp/perlmvc-problem-resolving.png"
   inkscape:export-xdpi="90"
   inkscape:export-ydpi="90">
  <defs
     id="defs4" />
  <sodipodi:namedview
     id="base"
     pagecolor="#ffffff"
     bordercolor="#666666"
     borderopacity="1.0"
     inkscape:pageopacity="1"
     inkscape:pageshadow="2"
     inkscape:zoom="0.35355339"
     inkscape:cx="275.87843"
     inkscape:cy="209.03337"
     inkscape:document-units="px"
     inkscape:current-layer="layer1"
     showgrid="false"
     showborder="false"
     inkscape:showpageshadow="false"
     inkscape:window-width="1280"
     inkscape:window-height="954"
     inkscape:window-x="0"
     inkscape:window-y="25"
     inkscape:window-maximized="1" />
  <metadata
     id="metadata7">
    <rdf:RDF>
      <cc:Work
         rdf:about="">
        <dc:format>image/svg+xml</dc:format>
        <dc:type
           rdf:resource="http://purl.org/dc/dcmitype/StillImage" />
        <dc:title></dc:title>
      </cc:Work>
    </rdf:RDF>
  </metadata>
  <g
     inkscape:label="Capa 1"
     inkscape:groupmode="layer"
     id="layer1">
    <rect
       style="fill:#99ff55;stroke:#000000;stroke-width:1;stroke-miterlimit:4;stroke-opacity:1;stroke-dasharray:none"
       id="rect3004"
       width="114.14719"
       height="114.14719"
       x="-222.08553"
       y="-196.11752"
       transform="matrix(0.70710678,-0.70710678,0.70710678,0.70710678,0,0)" />
    <rect
       style="fill:none;stroke:#000000;stroke-width:1;stroke-miterlimit:4;stroke-opacity:1;stroke-dasharray:none"
       id="rect3004-2"
       width="108.49033"
       height="108.49033"
       x="-141.09262"
       y="178.96385"
       transform="matrix(0,-1,1,0,0,0)" />
    <text
       xml:space="preserve"
       style="font-size:20px;font-style:normal;font-weight:normal;line-height:125%;letter-spacing:0px;word-spacing:0px;fill:#000000;fill-opacity:1;stroke:none;font-family:Sans"
       x="-253.65686"
       y="6.8058319"
       id="text3792"
       sodipodi:linespacing="125%"><tspan
         sodipodi:role="line"
         id="tspan3794"
         x="-253.65686"
         y="6.8058319">¿es un</tspan><tspan
         sodipodi:role="line"
         x="-253.65686"
         y="31.805832"
         id="tspan3834">ERROR?</tspan></text>
    <text
       xml:space="preserve"
       style="font-size:58.77562332px;font-style:normal;font-weight:normal;line-height:125%;letter-spacing:0px;word-spacing:0px;fill:#000000;fill-opacity:1;stroke:none;font-family:Sans"
       x="-1305.1329"
       y="-247.17297"
       id="text3796"
       sodipodi:linespacing="125%"><tspan
         sodipodi:role="line"
         id="tspan3798"
         x="-1305.1329"
         y="-247.17297">RECUERDA FLUJO NORMAL DE APP:</tspan><tspan
         sodipodi:role="line"
         x="-1305.1329"
         y="-173.70345"
         id="tspan3800"
         style="fill:#ff0000">URL=&gt;miEnrutador.pm=&gt;CONTROLADOR=&gt;VISTA(web template)</tspan></text>
    <text
       xml:space="preserve"
       style="font-size:20px;font-style:normal;font-weight:normal;line-height:125%;letter-spacing:0px;word-spacing:0px;fill:#000000;fill-opacity:1;stroke:none;font-family:Sans"
       x="194.74516"
       y="87.86853"
       id="text3802"
       sodipodi:linespacing="125%"><tspan
         sodipodi:role="line"
         x="194.74516"
         y="87.86853"
         id="tspan4219">mejora</tspan></text>
    <rect
       style="fill:none;stroke:#000000;stroke-width:1;stroke-miterlimit:4;stroke-opacity:1;stroke-dasharray:none"
       id="rect3004-8"
       width="114.14719"
       height="114.14719"
       x="207.4996"
       y="325.7644"
       transform="matrix(0.70710678,-0.70710678,0.70710678,0.70710678,0,0)" />
    <text
       xml:space="preserve"
       style="font-size:20px;font-style:normal;font-weight:normal;line-height:125%;letter-spacing:0px;word-spacing:0px;fill:#000000;fill-opacity:1;stroke:none;font-family:Sans"
       x="404.84946"
       y="66.081947"
       id="text3824"
       sodipodi:linespacing="125%"><tspan
         sodipodi:role="line"
         id="tspan3826"
         x="404.84946"
         y="66.081947">¿necesitas</tspan><tspan
         sodipodi:role="line"
         x="404.84946"
         y="91.081947"
         id="tspan3828">nueva</tspan><tspan
         sodipodi:role="line"
         x="404.84946"
         y="116.08195"
         id="tspan3830">URL?</tspan></text>
    <rect
       style="fill:none;stroke:#000000;stroke-width:1;stroke-miterlimit:4;stroke-opacity:1;stroke-dasharray:none"
       id="rect3004-0"
       width="114.14719"
       height="114.14719"
       x="-427.20602"
       y="-308.94116"
       transform="matrix(0.70710678,-0.70710678,0.70710678,0.70710678,0,0)" />
    <text
       xml:space="preserve"
       style="font-size:20px;font-style:normal;font-weight:normal;line-height:125%;letter-spacing:0px;word-spacing:0px;fill:#000000;fill-opacity:1;stroke:none;font-family:Sans"
       x="-486.48947"
       y="62.412674"
       id="text3856"
       sodipodi:linespacing="125%"><tspan
         sodipodi:role="line"
         id="tspan3858"
         x="-486.48947"
         y="62.412674">se muestra </tspan><tspan
         sodipodi:role="line"
         x="-486.48947"
         y="87.412674"
         id="tspan3860">ERROR </tspan><tspan
         sodipodi:role="line"
         x="-486.48947"
         y="112.41267"
         id="tspan3862">en web</tspan></text>
    <text
       xml:space="preserve"
       style="font-size:20px;font-style:normal;font-weight:normal;line-height:125%;letter-spacing:0px;word-spacing:0px;fill:#000000;fill-opacity:1;stroke:none;font-family:Sans"
       x="-132.3503"
       y="38.253311"
       id="text3864"
       sodipodi:linespacing="125%"><tspan
         sodipodi:role="line"
         id="tspan3866"
         x="-132.3503"
         y="38.253311">no</tspan></text>
    <text
       xml:space="preserve"
       style="font-size:20px;font-style:normal;font-weight:normal;line-height:125%;letter-spacing:0px;word-spacing:0px;fill:#000000;fill-opacity:1;stroke:none;font-family:Sans"
       x="-301.34525"
       y="54.035057"
       id="text3868"
       sodipodi:linespacing="125%"><tspan
         sodipodi:role="line"
         id="tspan3870"
         x="-301.34525"
         y="54.035057">sí</tspan></text>
    <text
       xml:space="preserve"
       style="font-size:20px;font-style:normal;font-weight:normal;line-height:125%;letter-spacing:0px;word-spacing:0px;fill:#000000;fill-opacity:1;stroke:none;font-family:Sans"
       x="-478.00418"
       y="186.86348"
       id="text3872"
       sodipodi:linespacing="125%"><tspan
         sodipodi:role="line"
         id="tspan3874"
         x="-478.00418"
         y="186.86348">sí</tspan></text>
    <rect
       style="fill:none;stroke:#000000;stroke-width:0.99999994;stroke-miterlimit:4;stroke-opacity:1;stroke-dasharray:none"
       id="rect3004-2-1"
       width="77.377632"
       height="334.7645"
       x="-407.88535"
       y="-794.88806"
       transform="matrix(0,-1,1,0,0,0)" />
    <text
       xml:space="preserve"
       style="font-size:20px;font-style:normal;font-weight:normal;line-height:125%;letter-spacing:0px;word-spacing:0px;fill:#000000;fill-opacity:1;stroke:none;font-family:Sans"
       x="-782.69141"
       y="362.61453"
       id="text3894"
       sodipodi:linespacing="125%"><tspan
         sodipodi:role="line"
         x="-782.69141"
         y="362.61453"
         id="tspan3898">busca el nombre de la función</tspan><tspan
         sodipodi:role="line"
         x="-782.69141"
         y="387.61453"
         id="tspan3902">y la línea del error en el cógido</tspan></text>
    <text
       xml:space="preserve"
       style="font-size:20px;font-style:normal;font-weight:normal;line-height:125%;letter-spacing:0px;word-spacing:0px;fill:#000000;fill-opacity:1;stroke:none;font-family:Sans"
       x="-842.87128"
       y="63.826893"
       id="text3922"
       sodipodi:linespacing="125%"><tspan
         sodipodi:role="line"
         id="tspan3924"
         x="-842.87128"
         y="63.826893">se ve error en</tspan><tspan
         sodipodi:role="line"
         x="-842.87128"
         y="88.826889"
         id="tspan3926">/var/log/http/errors.log</tspan></text>
    <rect
       style="fill:none;stroke:#000000;stroke-width:1;stroke-miterlimit:4;stroke-opacity:1;stroke-dasharray:none"
       id="rect3004-26"
       width="114.14719"
       height="114.14719"
       x="-650.20599"
       y="-533.94116"
       transform="matrix(0.70710678,-0.70710678,0.70710678,0.70710678,0,0)" />
    <text
       xml:space="preserve"
       style="font-size:20px;font-style:normal;font-weight:normal;line-height:125%;letter-spacing:0px;word-spacing:0px;fill:#000000;fill-opacity:1;stroke:none;font-family:Sans"
       x="-780.64587"
       y="179.7924"
       id="text3946"
       sodipodi:linespacing="125%"><tspan
         sodipodi:role="line"
         id="tspan3948"
         x="-780.64587"
         y="179.7924">sí</tspan></text>
    <text
       xml:space="preserve"
       style="font-size:20px;font-style:normal;font-weight:normal;line-height:125%;letter-spacing:0px;word-spacing:0px;fill:#000000;fill-opacity:1;stroke:none;font-family:Sans"
       x="-1318.853"
       y="82.516953"
       id="text3922-3"
       sodipodi:linespacing="125%"><tspan
         sodipodi:role="line"
         x="-1318.853"
         y="82.516953"
         id="tspan3926-7">¿capturas </tspan><tspan
         sodipodi:role="line"
         x="-1318.853"
         y="107.51695"
         id="tspan4009">error</tspan></text>
    <rect
       style="fill:none;stroke:#000000;stroke-width:1;stroke-miterlimit:4;stroke-opacity:1;stroke-dasharray:none"
       id="rect3004-26-5"
       width="114.14719"
       height="114.14719"
       x="-1016.7072"
       y="-892.44238"
       transform="matrix(0.70710678,-0.70710678,0.70710678,0.70710678,0,0)" />
    <rect
       style="fill:none;stroke:#000000;stroke-width:1;stroke-miterlimit:4;stroke-opacity:1;stroke-dasharray:none"
       id="rect3004-2-7"
       width="176.37259"
       height="176.37259"
       x="-174.64058"
       y="-1085.2069"
       transform="matrix(0,-1,1,0,0,0)" />
    <text
       xml:space="preserve"
       style="font-size:20px;font-style:normal;font-weight:normal;line-height:125%;letter-spacing:0px;word-spacing:0px;fill:#000000;fill-opacity:1;stroke:none;font-family:Sans"
       x="-1069.1455"
       y="25.643143"
       id="text3995"
       sodipodi:linespacing="125%"><tspan
         sodipodi:role="line"
         id="tspan3997"
         x="-1069.1455"
         y="25.643143">activa</tspan><tspan
         sodipodi:role="line"
         x="-1069.1455"
         y="50.643143"
         id="tspan3999">Firebug</tspan><tspan
         sodipodi:role="line"
         x="-1069.1455"
         y="75.643143"
         id="tspan4001">o </tspan><tspan
         sodipodi:role="line"
         x="-1069.1455"
         y="100.64314"
         id="tspan4003">consola errores</tspan><tspan
         sodipodi:role="line"
         x="-1069.1455"
         y="125.64314"
         id="tspan4005">en navegador</tspan></text>
    <text
       xml:space="preserve"
       style="font-size:20px;font-style:normal;font-weight:normal;line-height:125%;letter-spacing:0px;word-spacing:0px;fill:#000000;fill-opacity:1;stroke:none;font-family:Sans"
       x="-1261.5685"
       y="194.66161"
       id="text4028"
       sodipodi:linespacing="125%"><tspan
         sodipodi:role="line"
         id="tspan4030"
         x="-1261.5685"
         y="194.66161">sí</tspan></text>
    <text
       xml:space="preserve"
       style="font-size:20px;font-style:normal;font-weight:normal;line-height:125%;letter-spacing:0px;word-spacing:0px;fill:#000000;fill-opacity:1;stroke:none;font-family:Sans"
       x="-1382.0583"
       y="105.50476"
       id="text4032"
       sodipodi:linespacing="125%"><tspan
         sodipodi:role="line"
         id="tspan4034"
         x="-1382.0583"
         y="105.50476">no</tspan></text>
    <flowRoot
       xml:space="preserve"
       id="flowRoot4102"
       style="fill:black;stroke:none;stroke-opacity:1;stroke-width:1px;stroke-linejoin:miter;stroke-linecap:butt;fill-opacity:1;font-family:Sans;font-style:normal;font-weight:normal;font-size:20px;line-height:125%;letter-spacing:0px;word-spacing:0px"><flowRegion
         id="flowRegion4104"><rect
           id="rect4106"
           width="610.94025"
           height="347.89655"
           x="-379.00925"
           y="413.13766" /></flowRegion><flowPara
         id="flowPara4108"></flowPara></flowRoot>    <rect
       style="fill:none;stroke:#000000;stroke-width:1;stroke-miterlimit:4;stroke-opacity:1;stroke-dasharray:none"
       id="rect3004-2-7-6"
       width="210.31371"
       height="259.81119"
       x="-201.51067"
       y="-1795.8491"
       transform="matrix(0,-1,1,0,0,0)" />
    <text
       xml:space="preserve"
       style="font-size:20px;font-style:normal;font-weight:normal;line-height:125%;letter-spacing:0px;word-spacing:0px;fill:#000000;fill-opacity:1;stroke:none;font-family:Sans"
       x="-1783.6628"
       y="20.383257"
       id="text4054"
       sodipodi:linespacing="125%"><tspan
         sodipodi:role="line"
         id="tspan4056"
         x="-1783.6628"
         y="20.383257">si la web parece</tspan><tspan
         sodipodi:role="line"
         x="-1783.6628"
         y="45.383263"
         id="tspan4058">&quot;inherte&quot;</tspan><tspan
         sodipodi:role="line"
         x="-1783.6628"
         y="70.383263"
         id="tspan4060">comprueba</tspan><tspan
         sodipodi:role="line"
         x="-1783.6628"
         y="95.383263"
         id="tspan4062">que no tienes </tspan><tspan
         sodipodi:role="line"
         x="-1783.6628"
         y="120.38326"
         id="tspan4064">javascript desactivado</tspan><tspan
         sodipodi:role="line"
         x="-1783.6628"
         y="145.38326"
         id="tspan4066">ó para IE que es un </tspan><tspan
         sodipodi:role="line"
         x="-1783.6628"
         y="170.38326"
         id="tspan4068">sitio confiable</tspan></text>
    <rect
       style="fill:none;stroke:#000000;stroke-width:1;stroke-miterlimit:4;stroke-opacity:1;stroke-dasharray:none"
       id="rect3004-2-7-6-6"
       width="210.31371"
       height="296.58072"
       x="-600.31891"
       y="-1440.8816"
       transform="matrix(0,-1,1,0,0,0)" />
    <text
       xml:space="preserve"
       style="font-size:20px;font-style:normal;font-weight:normal;line-height:125%;letter-spacing:0px;word-spacing:0px;fill:#000000;fill-opacity:1;stroke:none;font-family:Sans"
       x="-1419.8705"
       y="431.52243"
       id="text4088"
       sodipodi:linespacing="125%"><tspan
         sodipodi:role="line"
         id="tspan4090"
         x="-1419.8705"
         y="431.52243">Verás el nombre script js</tspan><tspan
         sodipodi:role="line"
         x="-1419.8705"
         y="456.52243"
         id="tspan4098">y la línea del código que </tspan><tspan
         sodipodi:role="line"
         x="-1419.8705"
         y="481.52243"
         id="tspan4100">da error</tspan><tspan
         sodipodi:role="line"
         x="-1419.8705"
         y="506.52243"
         id="tspan4094" /><tspan
         sodipodi:role="line"
         x="-1419.8705"
         y="531.52246"
         id="tspan4096">Revisa el codigo </tspan><tspan
         sodipodi:role="line"
         x="-1419.8705"
         y="556.52246"
         id="tspan4092">en /html/js</tspan></text>
    <path
       style="fill:#000000;fill-opacity:1;stroke:#000000;stroke-width:1;stroke-miterlimit:4;stroke-opacity:1;stroke-dasharray:none"
       id="path4197"
       d="m -552.83003,89.989066 c -7.1388,1.079009 -14.30754,1.929928 -21.50232,2.525345 -7.44909,0.459845 -14.92405,0.278659 -22.38535,0.343981 0,0 23.30228,-16.939296 23.30228,-16.939296 l 0,0 c 7.45953,0.02776 14.92062,-0.04813 22.36322,-0.609192 7.22406,-0.577352 14.63397,-1.130794 21.48988,-3.617666 0,0 -23.26771,18.296828 -23.26771,18.296828 z"
       inkscape:connector-curvature="0" />
    <path
       style="fill:#000000;fill-opacity:1;stroke:#000000;stroke-width:1;stroke-miterlimit:4;stroke-opacity:1;stroke-dasharray:none"
       id="path4199"
       d="m -459.04551,193.34581 c -3.28719,7.44261 -7.40409,14.47508 -11.34278,21.58313 -6.10515,11.0111 -12.98188,21.55679 -19.97149,32.0184 -5.67004,8.29694 -11.08375,16.74232 -16.21266,25.38272 -1.77957,3.12071 -3.3579,6.3446 -4.89426,9.58916 0,0 -26.36525,12.00091 -26.36525,12.00091 l 0,0 c 1.58563,-3.37202 3.30302,-6.66831 5.0234,-9.97387 5.38528,-8.73147 10.80838,-17.41625 16.7659,-25.77761 6.99934,-10.29068 13.84119,-20.69148 19.77059,-31.64894 3.69002,-6.78256 7.60389,-13.52529 10.36063,-20.74881 0,0 26.86592,-12.42509 26.86592,-12.42509 z"
       inkscape:connector-curvature="0" />
    <path
       style="fill:#000000;fill-opacity:1;stroke:#000000;stroke-width:1;stroke-miterlimit:4;stroke-opacity:1;stroke-dasharray:none"
       id="path4201"
       d="m -746.23814,187.85809 c 9.79796,11.98167 18.40551,24.87949 27.84909,37.14421 15.0907,18.63085 32.84081,34.857 51.84219,49.39547 7.60244,5.75396 3.97977,3.11176 10.83646,7.96967 0,0 -23.8519,15.03255 -23.8519,15.03255 l 0,0 c -6.27502,-5.32347 -2.95598,-2.46002 -9.93712,-8.61347 -18.12833,-15.72255 -35.94343,-31.96006 -51.53038,-50.25621 -9.85768,-11.93059 -18.84132,-24.84084 -30.33972,-35.27169 0,0 25.13138,-15.40053 25.13138,-15.40053 z"
       inkscape:connector-curvature="0" />
    <text
       xml:space="preserve"
       style="font-size:20px;font-style:normal;font-weight:normal;line-height:125%;letter-spacing:0px;word-spacing:0px;fill:#000000;fill-opacity:1;stroke:none;font-family:Sans"
       x="-536"
       y="128.36218"
       id="text4203"
       sodipodi:linespacing="125%"><tspan
         sodipodi:role="line"
         id="tspan4205"
         x="-536"
         y="128.36218">no</tspan></text>
    <path
       style="fill:#000000;fill-opacity:1;stroke:#000000;stroke-width:1;stroke-miterlimit:4;stroke-opacity:1;stroke-dasharray:none"
       id="path4207"
       d="m -880.97201,103.09164 c -4.70835,-0.18788 -9.42466,-0.15642 -14.1364,-0.15957 -4.75548,0.0165 -9.42549,1.1383 -14.15363,1.63485 -0.70436,0.055 -1.40873,0.11004 -2.1131,0.16506 0,0 23.58841,-17.464516 23.58841,-17.464516 l 0,0 c 0.68569,-0.07044 1.37138,-0.140877 2.05707,-0.211316 4.72104,-0.586925 9.4315,-1.488807 14.21212,-1.263851 4.8583,-0.0032 9.72038,0.02256 14.57567,-0.159575 0,0 -24.03014,17.458918 -24.03014,17.458918 z"
       inkscape:connector-curvature="0" />
    <text
       xml:space="preserve"
       style="font-size:20px;font-style:normal;font-weight:normal;line-height:125%;letter-spacing:0px;word-spacing:0px;fill:#000000;fill-opacity:1;stroke:none;font-family:Sans"
       x="-840.39642"
       y="121.4561"
       id="text4209"
       sodipodi:linespacing="125%"><tspan
         sodipodi:role="line"
         id="tspan4211"
         x="-840.39642"
         y="121.4561">no</tspan></text>
    <path
       style="fill:#000000;fill-opacity:1;stroke:#000000;stroke-width:1;stroke-miterlimit:4;stroke-opacity:1;stroke-dasharray:none"
       id="path4213"
       d="m -1119.4782,99.682613 c -5.6467,-0.245731 -11.3027,-0.230697 -16.954,-0.264841 -7.7529,-0.03466 -15.5063,-0.04659 -23.2591,0.0257 -2.9068,0.01291 -5.8134,0.05044 -8.7201,0.08612 0,0 16.5282,-12.008425 16.5282,-12.008425 l 0,0 c 2.8276,0.03593 5.6552,0.07362 8.483,0.08612 7.7292,0.07398 15.459,0.05907 23.1884,0.0257 5.8944,-0.03503 11.7926,-0.02754 17.683,-0.26484 0,0 -16.9494,12.31445 -16.9494,12.31445 z"
       inkscape:connector-curvature="0" />
    <path
       style="fill:#000000;fill-opacity:1;stroke:#000000;stroke-width:1;stroke-miterlimit:4;stroke-opacity:1;stroke-dasharray:none"
       id="path4215"
       d="m -1419.1435,109.59754 c -15.3924,-1.15623 -30.7275,-2.95238 -46.0542,-4.78136 -20.6212,-2.19135 -41.2973,-3.8521 -61.9657,-5.532636 0,0 13.7833,-9.814475 13.7833,-9.814475 l 0,0 c 20.5637,2.278617 41.166,4.053447 61.7925,5.665743 16.4319,1.356979 32.9309,2.84946 49.436,2.11741 0,0 -16.9919,12.345318 -16.9919,12.345318 z"
       inkscape:connector-curvature="0" />
    <path
       style="fill:#000000;fill-opacity:1;stroke:#000000;stroke-width:1;stroke-miterlimit:4;stroke-opacity:1;stroke-dasharray:none"
       id="path4217"
       d="m -1266.6235,207.92526 c -5.389,20.40905 -9.334,41.17798 -13.3854,61.88566 -4.2835,22.56965 -6.7072,45.43489 -7.6862,68.37294 0,0 -17.0267,8.50523 -17.0267,8.50523 l 0,0 c 2.6909,-23.27871 5.7978,-46.51581 9.7778,-69.61238 3.5505,-19.98635 7.371,-39.96643 9.6495,-60.14678 0,0 18.671,-9.00467 18.671,-9.00467 z"
       inkscape:connector-curvature="0" />
    <rect
       style="fill:none;stroke:#000000;stroke-width:1;stroke-miterlimit:4;stroke-opacity:1;stroke-dasharray:none"
       id="rect3004-8-4"
       width="114.14719"
       height="114.14719"
       x="-92.685028"
       y="29.449537"
       transform="matrix(0.70710678,-0.70710678,0.70710678,0.70710678,0,0)" />
    <text
       xml:space="preserve"
       style="font-size:20px;font-style:normal;font-weight:normal;line-height:125%;letter-spacing:0px;word-spacing:0px;fill:#000000;fill-opacity:1;stroke:none;font-family:Sans"
       x="-2.2426407"
       y="76.947968"
       id="text4241"
       sodipodi:linespacing="125%"><tspan
         sodipodi:role="line"
         id="tspan4243"
         x="-2.2426407"
         y="76.947968">¿es un</tspan><tspan
         sodipodi:role="line"
         x="-2.2426407"
         y="101.94797"
         id="tspan4245">cambio?</tspan></text>
    <path
       style="fill:#000000;fill-opacity:1;stroke:#000000;stroke-width:1;stroke-miterlimit:4;stroke-opacity:1;stroke-dasharray:none"
       id="path4274"
       d="m -360.68822,76.99574 c 4.3191,-5.379627 8.1755,-11.105532 12.35397,-16.592893 3.27508,-4.35252 6.36995,-8.836662 9.61403,-13.211476 2.25103,-2.925588 4.48359,-5.875546 6.81813,-8.734013 1.57863,-1.501149 3.08225,-3.067459 4.72813,-4.49582 0,0 27.41193,-11.294729 27.41193,-11.294729 l 0,0 c -1.4995,1.596282 -3.31996,2.786819 -4.69742,4.521213 -1.60427,1.125456 -2.17198,2.152977 -3.28032,3.733026 -1.6253,2.317007 -0.74727,0.685795 -2.61264,2.825024 -0.46371,0.531785 -0.83902,1.134607 -1.25853,1.70191 -3.18392,4.540055 -6.69657,8.848476 -9.84288,13.427123 -4.22086,5.312237 -8.13168,10.851795 -11.94409,16.461177 0,0 -27.29031,11.659458 -27.29031,11.659458 z"
       inkscape:connector-curvature="0" />
    <path
       style="fill:#000000;fill-opacity:1;stroke:#000000;stroke-width:1;stroke-miterlimit:4;stroke-opacity:1;stroke-dasharray:none"
       id="path4276"
       d="m -80.333654,45.01145 c 5.251386,3.388413 10.793262,6.315983 16.330042,9.214402 4.028197,1.778277 8.010678,3.738888 11.705463,6.137444 0,0 -24.82733,15.978058 -24.82733,15.978058 l 0,0 c -3.675256,-2.266082 -7.553023,-4.163876 -11.424495,-6.068787 -5.561525,-3.068202 -11.166945,-6.050769 -16.724026,-9.124244 0,0 24.940346,-16.136873 24.940346,-16.136873 z"
       inkscape:connector-curvature="0" />
    <text
       xml:space="preserve"
       style="font-size:20px;font-style:normal;font-weight:normal;line-height:125%;letter-spacing:0px;word-spacing:0px;fill:#000000;fill-opacity:1;stroke:none;font-family:Sans"
       x="122"
       y="106.36218"
       id="text4310"
       sodipodi:linespacing="125%"><tspan
         sodipodi:role="line"
         id="tspan4312"
         x="122"
         y="106.36218">no</tspan></text>
    <text
       xml:space="preserve"
       style="font-size:20px;font-style:normal;font-weight:normal;line-height:125%;letter-spacing:0px;word-spacing:0px;fill:#000000;fill-opacity:1;stroke:none;font-family:Sans"
       x="-10"
       y="190.36218"
       id="text4314"
       sodipodi:linespacing="125%"><tspan
         sodipodi:role="line"
         id="tspan4316"
         x="-10"
         y="190.36218">sí</tspan></text>
    <path
       style="fill:#000000;fill-opacity:1;stroke:#000000;stroke-width:1;stroke-miterlimit:4;stroke-opacity:1;stroke-dasharray:none"
       id="path4318"
       d="m 129.4481,57.63445 c 5.33547,0.112483 10.67336,0.09755 16.00985,0.08456 4.69175,-0.01807 9.38349,-0.03466 14.07526,-0.04324 3.6476,0.01302 7.16484,1.164192 10.79021,1.595924 0,0 -24.20852,17.079698 -24.20852,17.079698 l 0,0 c -3.48556,-0.557063 -6.92965,-1.53013 -10.49335,-1.302781 -4.65209,-0.0086 -9.30416,-0.02512 -13.95622,-0.04325 -5.4141,-0.01327 -10.82947,-0.02576 -16.24262,0.08456 0,0 24.02539,-17.455466 24.02539,-17.455466 z"
       inkscape:connector-curvature="0" />
    <path
       style="fill:#000000;fill-opacity:1;stroke:#000000;stroke-width:1;stroke-miterlimit:4;stroke-opacity:1;stroke-dasharray:none"
       id="path4320"
       d="m 317.88572,81.664132 c 7.37588,-0.537729 14.71483,-1.1087 22.01795,-2.278628 5.3037,-1.313834 10.8801,-0.851013 16.17847,-1.999614 4.09836,-1.381572 6.90434,-0.732782 10.80837,0.602598 0,0 -24.489,16.70507 -24.489,16.70507 l 0,0 c -3.38503,-0.906298 -6.54395,-0.328187 -9.93333,0.408544 -5.3366,0.508631 -10.68507,0.901733 -15.97483,1.822744 -7.48517,1.013971 -15.02456,1.531304 -22.55131,2.135388 0,0 23.94368,-17.396102 23.94368,-17.396102 z"
       inkscape:connector-curvature="0" />
    <rect
       style="fill:none;stroke:#000000;stroke-width:1;stroke-miterlimit:4;stroke-opacity:1;stroke-dasharray:none"
       id="rect3004-2-5"
       width="120.49033"
       height="760.49036"
       x="-462.60736"
       y="-136.24516"
       transform="matrix(0,-1,1,0,0,0)" />
    <text
       xml:space="preserve"
       style="font-size:20px;font-style:normal;font-weight:normal;line-height:125%;letter-spacing:0px;word-spacing:0px;fill:#000000;fill-opacity:1;stroke:none;font-family:Sans"
       x="-124.36035"
       y="387.20398"
       id="text3796-7"
       sodipodi:linespacing="125%"><tspan
         sodipodi:role="line"
         id="tspan3798-3"
         x="-124.36035"
         y="387.20398">Recorre esta lógica hasta encontrar el punto donde meter el cambio:</tspan><tspan
         sodipodi:role="line"
         x="-124.36035"
         y="412.20398"
         id="tspan3800-7">URL=&gt;miEnrutador.pm=&gt;CONTROLADOR=&gt;VISTA(web template)</tspan></text>
    <g
       id="g4392"
       transform="translate(722,7.9999998)">
      <rect
         transform="matrix(0,-1,1,0,0,0)"
         y="-224.24518"
         x="-778.17493"
         height="140.49036"
         width="48.057884"
         id="rect3004-2-5-6"
         style="fill:none;stroke:#000000;stroke-width:1;stroke-miterlimit:4;stroke-opacity:1;stroke-dasharray:none" />
      <text
         sodipodi:linespacing="125%"
         id="text4388"
         y="761.42627"
         x="-193.57031"
         style="font-size:20px;font-style:normal;font-weight:normal;line-height:125%;letter-spacing:0px;word-spacing:0px;fill:#000000;fill-opacity:1;stroke:none;font-family:Sans"
         xml:space="preserve"><tspan
           y="761.42627"
           x="-193.57031"
           id="tspan4390"
           sodipodi:role="line">A PICAR</tspan></text>
    </g>
    <rect
       style="fill:none;stroke:#000000;stroke-width:1;stroke-miterlimit:4;stroke-opacity:1;stroke-dasharray:none"
       id="rect3004-2-54"
       width="108.49033"
       height="208.49033"
       x="-144.60735"
       y="641.75482"
       transform="matrix(0,-1,1,0,0,0)" />
    <text
       xml:space="preserve"
       style="font-size:20px;font-style:normal;font-weight:normal;line-height:125%;letter-spacing:0px;word-spacing:0px;fill:#000000;fill-opacity:1;stroke:none;font-family:Sans"
       x="662"
       y="74.362183"
       id="text4415"
       sodipodi:linespacing="125%"><tspan
         sodipodi:role="line"
         id="tspan4417"
         x="662"
         y="74.362183">crea la ruta</tspan><tspan
         sodipodi:role="line"
         x="662"
         y="99.362183"
         id="tspan4419">miEnrutador.pm</tspan></text>
    <rect
       style="fill:none;stroke:#000000;stroke-width:1;stroke-miterlimit:4;stroke-opacity:1;stroke-dasharray:none"
       id="rect3004-8-2"
       width="177.78679"
       height="177.78679"
       x="521.79077"
       y="747.1629"
       transform="matrix(0.70710678,-0.70710678,0.70710678,0.70710678,0,0)" />
    <text
       xml:space="preserve"
       style="font-size:20px;font-style:normal;font-weight:normal;line-height:125%;letter-spacing:0px;word-spacing:0px;fill:#000000;fill-opacity:1;stroke:none;font-family:Sans"
       x="948.94727"
       y="127.37974"
       id="text4439"
       sodipodi:linespacing="125%"><tspan
         sodipodi:role="line"
         id="tspan4441"
         x="948.94727"
         y="127.37974">¿necesitas </tspan><tspan
         sodipodi:role="line"
         x="948.94727"
         y="152.37973"
         id="tspan4443">pasar datos a desde</tspan><tspan
         sodipodi:role="line"
         x="948.94727"
         y="177.37973"
         id="tspan4481">URL=&gt; al </tspan><tspan
         sodipodi:role="line"
         x="948.94727"
         y="202.37973"
         id="tspan4449">controlador ó</tspan><tspan
         sodipodi:role="line"
         x="948.94727"
         y="227.37973"
         id="tspan4455">web template?</tspan></text>
    <text
       xml:space="preserve"
       style="font-size:20px;font-style:normal;font-weight:normal;line-height:125%;letter-spacing:0px;word-spacing:0px;fill:#000000;fill-opacity:1;stroke:none;font-family:Sans"
       x="1068"
       y="276.36218"
       id="text4445"
       sodipodi:linespacing="125%"><tspan
         sodipodi:role="line"
         id="tspan4447"
         x="1068"
         y="276.36218">si</tspan></text>
    <g
       id="g4555"
       transform="translate(-138,-24)">
      <rect
         transform="matrix(0,-1,1,0,0,0)"
         y="1011.7548"
         x="-472.60736"
         height="546.4903"
         width="108.49033"
         id="rect3004-2-54-3"
         style="fill:none;stroke:#000000;stroke-width:1;stroke-miterlimit:4;stroke-opacity:1;stroke-dasharray:none" />
      <text
         sodipodi:linespacing="125%"
         id="text4475"
         y="398.36218"
         x="1028"
         style="font-size:20px;font-style:normal;font-weight:normal;line-height:125%;letter-spacing:0px;word-spacing:0px;fill:#000000;fill-opacity:1;stroke:none;font-family:Sans"
         xml:space="preserve"><tspan
           y="398.36218"
           x="1028"
           id="tspan4477"
           sodipodi:role="line">usa regex en la ruta, con paréntesis para capturar</tspan><tspan
           id="tspan4479"
           y="423.36218"
           x="1028"
           sodipodi:role="line">los datos.</tspan><tspan
           id="tspan4485"
           y="448.36218"
           x="1028"
           sodipodi:role="line">Enviaselos al controlador o web Template con $1</tspan><tspan
           id="tspan4483"
           y="473.36218"
           x="1028"
           sodipodi:role="line" /></text>
    </g>
    <rect
       style="fill:none;stroke:#000000;stroke-width:1;stroke-miterlimit:4;stroke-opacity:1;stroke-dasharray:none"
       id="rect3004-2-54-3-6"
       width="58.490334"
       height="364.4903"
       x="-812.60736"
       y="868.75482"
       transform="matrix(0,-1,1,0,0,0)" />
    <text
       xml:space="preserve"
       style="font-size:20px;font-style:normal;font-weight:normal;line-height:125%;letter-spacing:0px;word-spacing:0px;fill:#000000;fill-opacity:1;stroke:none;font-family:Sans"
       x="885"
       y="788.36218"
       id="text4475-7"
       sodipodi:linespacing="125%"><tspan
         sodipodi:role="line"
         x="885"
         y="788.36218"
         id="tspan4483-9">Modifica modelos en Controlador</tspan></text>
    <rect
       style="fill:none;stroke:#000000;stroke-width:1;stroke-miterlimit:4;stroke-opacity:1;stroke-dasharray:none"
       id="rect3004-8-2-6"
       width="133.94617"
       height="133.94617"
       x="239.65518"
       y="1070.3108"
       transform="matrix(0.70710678,-0.70710678,0.70710678,0.70710678,0,0)" />
    <text
       xml:space="preserve"
       style="font-size:20px;font-style:normal;font-weight:normal;line-height:125%;letter-spacing:0px;word-spacing:0px;fill:#000000;fill-opacity:1;stroke:none;font-family:Sans"
       x="954"
       y="566.36218"
       id="text4547"
       sodipodi:linespacing="125%"><tspan
         sodipodi:role="line"
         id="tspan4549"
         x="954"
         y="566.36218">¿Necesitas </tspan><tspan
         sodipodi:role="line"
         x="954"
         y="591.36218"
         id="tspan4551">modfiicar algún</tspan><tspan
         sodipodi:role="line"
         x="954"
         y="616.36218"
         id="tspan4553">modelo?</tspan></text>
    <rect
       style="fill:none;stroke:#000000;stroke-width:1;stroke-miterlimit:4;stroke-opacity:1;stroke-dasharray:none"
       id="rect3004-8-2-6-9"
       width="179.201"
       height="179.201"
       x="-99.756088"
       y="1391.3373"
       transform="matrix(0.70710678,-0.70710678,0.70710678,0.70710678,0,0)" />
    <text
       xml:space="preserve"
       style="font-size:20px;font-style:normal;font-weight:normal;line-height:125%;letter-spacing:0px;word-spacing:0px;fill:#000000;fill-opacity:1;stroke:none;font-family:Sans"
       x="922.99994"
       y="1041.3621"
       id="text4547-9"
       sodipodi:linespacing="125%"><tspan
         sodipodi:role="line"
         x="922.99994"
         y="1041.3621"
         id="tspan4598">Necesitas recordar</tspan><tspan
         sodipodi:role="line"
         x="922.99994"
         y="1066.3621"
         id="tspan4602">algún dato (sin modificar</tspan><tspan
         sodipodi:role="line"
         x="922.99994"
         y="1091.3621"
         id="tspan4604">modelo)</tspan></text>
    <rect
       style="fill:none;stroke:#000000;stroke-width:1;stroke-miterlimit:4;stroke-opacity:1;stroke-dasharray:none"
       id="rect3004-2-54-3-6-6"
       width="124.57437"
       height="838.4903"
       x="-1409.6913"
       y="825.75488"
       transform="matrix(0,-1,1,0,0,0)" />
    <text
       xml:space="preserve"
       style="font-size:20px;font-style:normal;font-weight:normal;line-height:125%;letter-spacing:0px;word-spacing:0px;fill:#000000;fill-opacity:1;stroke:none;font-family:Sans"
       x="842"
       y="1319.3622"
       id="text4475-7-8"
       sodipodi:linespacing="125%"><tspan
         sodipodi:role="line"
         x="842"
         y="1319.3622"
         id="tspan4483-9-3">Usa Varibales de SESSION (miSession.pm)</tspan><tspan
         sodipodi:role="line"
         x="842"
         y="1344.3622"
         id="tspan4634">escribe dato lo antes posible, mejor en enrutador ó controlador ó web template</tspan><tspan
         sodipodi:role="line"
         x="842"
         y="1369.3622"
         id="tspan4630">CConsultalo donde sea necesario.</tspan><tspan
         sodipodi:role="line"
         x="842"
         y="1394.3622"
         id="tspan4632">Cuanto termines no olvides borrar la Variable</tspan></text>
    <path
       style="fill:#000000;fill-opacity:1;stroke:#000000;stroke-width:1;stroke-miterlimit:4;stroke-opacity:1;stroke-dasharray:none"
       id="path4636"
       d="m 555.19825,81.64216 c 6.14322,0.233728 12.11115,2.046403 17.98939,3.715285 5.40783,1.35992 10.51942,3.576824 15.93106,4.926256 4.80944,1.180576 9.29768,1.469274 14.15688,0.694992 4.76279,-0.140392 8.98197,-2.155942 13.43619,-3.570295 3.52433,-1.757248 7.13467,-3.438599 10.91782,-4.558711 2.56897,-0.976452 5.0499,-2.129724 7.6012,-3.149173 0,0 -23.10234,18.210404 -23.10234,18.210404 l 0,0 c -2.55198,1.091767 -5.13048,2.122612 -7.75153,3.038562 -3.63806,1.43491 -7.17386,3.12312 -10.8502,4.45618 -4.5165,1.53736 -9.03809,2.85754 -13.84009,3.12836 -4.95536,0.36286 -9.84534,-0.43518 -14.63819,-1.70219 -5.35051,-1.51432 -10.53136,-3.53384 -15.89096,-5.01783 -5.84206,-1.68216 -11.82773,-3.203678 -17.96339,-2.731794 0,0 24.00416,-17.440046 24.00416,-17.440046 z"
       inkscape:connector-curvature="0" />
    <path
       style="fill:#000000;fill-opacity:1;stroke:#000000;stroke-width:1;stroke-miterlimit:4;stroke-opacity:1;stroke-dasharray:none"
       id="path4638"
       d="m 873.36536,54.121858 c 6.22562,2.303252 12.69082,3.860309 19.12775,5.444974 5.78212,0.970642 11.50531,2.263856 17.29121,3.20083 5.06782,1.34569 10.22038,2.240925 15.43977,2.695699 4.14714,0.455295 8.15103,0.307286 12.22084,-0.486659 4.10184,-0.831685 8.13623,-2.106608 11.96587,-3.810469 5.40754,-1.739195 10.62956,-3.977644 15.58008,-6.762347 9.05266,-4.741348 23.46093,-13.043096 -17.62612,10.277861 -0.85994,0.488101 1.68293,-1.03873 2.5168,-1.570146 2.62584,-1.673423 2.4433,-1.585836 4.99504,-3.367 5.59798,-4.009989 11.28321,-7.890408 16.68798,-12.16047 5.11329,-4.404154 9.73167,-9.36413 13.95256,-14.621799 2.75159,-3.532348 5.5291,-7.066663 7.84064,-10.907386 1.6754,-2.644058 3.17539,-5.416778 4.46799,-8.268972 7.20073,-14.21313175 12.80683,-12.8004094 31.54403,-23.83314 3.8444,3.946076 3.389,9.81305618 3.6012,14.9692951 -0.094,2.3097387 0.2748,4.5775652 0.6473,6.8439419 0,0 -25.9953,13.77489 -25.9953,13.77489 l 0,0 c -0.3827,-2.40091 -0.8106,-4.805733 -0.6584,-7.251438 -0.078,-2.628625 -0.139,-5.258978 -0.4988,-7.868672 -0.086,-0.6241073 -0.2063,-1.2433505 -0.334,-1.8602862 -0.057,-0.2774605 -0.4735,-0.6925675 -0.2209,-0.820817 0.2495,-0.1266508 0.1844,0.5283665 0.2766,0.7925497 35.8068,-21.2971295 26.2053,-19.6998275 18.5206,-6.9859848 -1.4283,2.9196522 -2.6518,5.884747 -4.3106,8.6860493 -2.7445,3.680576 -4.9116,7.813632 -8.0364,11.247608 -4.2588,5.435341 -8.9082,10.523221 -13.90497,15.297272 -5.28084,4.362537 -10.83706,8.323825 -16.45712,12.235929 -12.35551,9.249085 -26.1222,16.461123 -39.74594,23.667573 -5.14911,2.569045 -10.49938,4.627562 -15.88879,6.63555 -4.02729,1.509254 -8.19826,2.712054 -12.45908,3.342586 -4.20124,0.536463 -8.42621,0.263216 -12.62857,-0.188768 -5.20106,-0.673232 -10.29551,-1.846498 -15.4235,-2.92469 -5.76602,-1.027274 -11.51079,-2.230328 -17.22197,-3.525191 -6.52556,-1.678158 -13.01937,-3.523591 -19.60418,-4.939253 0,0 24.33838,-16.95912 24.33838,-16.95912 z"
       inkscape:connector-curvature="0" />
    <text
       xml:space="preserve"
       style="font-size:20px;font-style:normal;font-weight:normal;line-height:125%;letter-spacing:0px;word-spacing:0px;fill:#000000;fill-opacity:1;stroke:none;font-family:Sans"
       x="1162"
       y="178.36218"
       id="text4640"
       sodipodi:linespacing="125%"><tspan
         sodipodi:role="line"
         id="tspan4642"
         x="1162"
         y="178.36218">no</tspan></text>
    <text
       xml:space="preserve"
       style="font-size:20px;font-style:normal;font-weight:normal;line-height:125%;letter-spacing:0px;word-spacing:0px;fill:#000000;fill-opacity:1;stroke:none;font-family:Sans"
       x="1134"
       y="602.36218"
       id="text4644"
       sodipodi:linespacing="125%"><tspan
         sodipodi:role="line"
         id="tspan4646"
         x="1134"
         y="602.36218">no</tspan></text>
    <text
       xml:space="preserve"
       style="font-size:20px;font-style:normal;font-weight:normal;line-height:125%;letter-spacing:0px;word-spacing:0px;fill:#000000;fill-opacity:1;stroke:none;font-family:Sans"
       x="1020"
       y="702.36218"
       id="text4648"
       sodipodi:linespacing="125%"><tspan
         sodipodi:role="line"
         id="tspan4650"
         x="1020"
         y="702.36218" /></text>
    <text
       xml:space="preserve"
       style="font-size:20px;font-style:normal;font-weight:normal;line-height:125%;letter-spacing:0px;word-spacing:0px;fill:#000000;fill-opacity:1;stroke:none;font-family:Sans"
       x="1058"
       y="702.36218"
       id="text4652"
       sodipodi:linespacing="125%"><tspan
         sodipodi:role="line"
         id="tspan4654"
         x="1058"
         y="702.36218">sí</tspan></text>
    <text
       xml:space="preserve"
       style="font-size:20px;font-style:normal;font-weight:normal;line-height:125%;letter-spacing:0px;word-spacing:0px;fill:#000000;fill-opacity:1;stroke:none;font-family:Sans"
       x="1074"
       y="1200.3622"
       id="text4656"
       sodipodi:linespacing="125%"><tspan
         sodipodi:role="line"
         id="tspan4658"
         x="1074"
         y="1200.3622">sí</tspan></text>
    <path
       style="fill:#000000;fill-opacity:1;stroke:#000000;stroke-width:1;stroke-miterlimit:4;stroke-opacity:1;stroke-dasharray:none"
       id="path4672"
       d="m 1051.2122,1185.5853 c 0.9961,7.2313 1.6173,14.5081 2.0783,21.791 0.269,6.3502 0.6799,12.7207 0.2425,19.0688 -0.906,5.7569 -1.5888,11.549 -2.8788,17.2357 -1.3794,7.0611 -2.8301,14.12 -4.0215,21.2181 -0.8256,4.0215 -0.3629,2.0807 -1.3682,5.8272 0,0 -37.6381,17.8467 -37.6381,17.8467 l 0,0 c 1.14,-3.5886 0.5548,-1.7709 1.7569,-5.4527 1.1535,-7.1597 2.912,-14.1964 3.7524,-21.4027 1.3569,-5.5572 2.1378,-11.1566 3.1008,-16.7987 1.0156,-6.1051 0.1903,-12.3754 0.2452,-18.5389 -0.3067,-7.0363 -0.6564,-14.1337 -2.2654,-21.0148 0,0 36.9959,-19.7797 36.9959,-19.7797 z"
       inkscape:connector-curvature="0" />
    <text
       xml:space="preserve"
       style="font-size:20px;font-style:normal;font-weight:normal;line-height:125%;letter-spacing:0px;word-spacing:0px;fill:#000000;fill-opacity:1;stroke:none;font-family:Sans"
       x="869.74133"
       y="1093.3744"
       id="text4690"
       sodipodi:linespacing="125%"><tspan
         sodipodi:role="line"
         id="tspan4692"
         x="869.74133"
         y="1093.3744">no</tspan></text>
    <path
       style="fill:#000000;fill-opacity:1;stroke:#000000;stroke-width:1;stroke-miterlimit:4;stroke-opacity:1;stroke-dasharray:none"
       id="path4694"
       d="m 874.6352,1052.0476 c -0.85509,-0.6199 -1.75242,-1.1855 -2.56529,-1.8599 -4.58411,-3.8031 -6.09668,-5.7374 -10.8844,-9.9808 -11.36549,-10.0733 -23.22227,-19.6568 -34.85054,-29.4204 -39.3805,-33.37721 -82.16983,-62.31993 -125.42678,-90.35997 -30.34354,-19.59907 -60.3767,-39.67457 -90.46806,-59.65787 -5.94208,-4.78883 -13.34646,-8.01222 -18.25836,-14.01518 -1.81222,-2.21477 -2.25079,-3.3213 -3.57701,-5.80543 -2.51352,-6.3433 -4.01477,-13.0223 -5.95592,-19.55452 -1.19057,-3.96425 -0.6263,-2.00714 -1.69682,-5.87016 0,0 25.66336,-13.91857 25.66336,-13.91857 l 0,0 c 0.95068,3.82448 0.43406,1.88094 1.55784,5.82848 1.93489,6.34315 3.28264,12.86589 5.7109,19.05143 0.99809,1.92713 1.71931,3.52608 3.05062,5.26244 4.45414,5.80932 11.07019,9.56099 16.35597,14.48924 28.22237,21.54943 57.02223,42.3613 86.6058,62.00714 43.34592,28.53757 86.45449,57.5057 127.49131,89.32138 12.34087,9.43819 24.84228,18.65339 37.21604,28.04469 5.11984,3.8858 6.75598,5.7014 11.89966,8.7353 0.93378,0.5507 1.96493,0.9166 2.9474,1.3749 0,0 -24.81572,16.3278 -24.81572,16.3278 z"
       inkscape:connector-curvature="0" />
    <path
       style="fill:#000000;fill-opacity:1;stroke:#000000;stroke-width:1;stroke-miterlimit:4;stroke-opacity:1;stroke-dasharray:none"
       id="path4696"
       d="m 51.218428,192.82323 c -0.277057,9.03683 0.479091,18.09573 0.879782,27.12749 0.461688,9.5988 0.340622,19.20476 1.279872,28.77423 0.730744,5.77288 1.332672,11.5479 1.504401,17.36503 0.12027,5.47226 0.152038,10.94667 0.195819,16.42016 0.237186,4.3989 -0.05032,8.71982 -0.759122,13.05693 -0.102808,0.66169 -0.205616,1.32337 -0.308424,1.98506 0,0 -26.427406,12.9755 -26.427406,12.9755 l 0,0 c 0.09724,-0.67752 0.194474,-1.35504 0.291711,-2.03255 0.718068,-4.21987 1.39879,-8.36157 1.076147,-12.67201 0.04171,-5.45723 0.08165,-10.91517 -0.07568,-16.37121 -0.220983,-5.80498 -0.581879,-11.6018 -1.121824,-17.3866 -0.753511,-9.68424 -0.64623,-19.37915 -0.953207,-29.08541 -0.382873,-8.92061 -1.048831,-17.81376 -2.018925,-26.68637 0,0 26.436857,-13.47025 26.436857,-13.47025 z"
       inkscape:connector-curvature="0" />
    <path
       style="fill:#000000;fill-opacity:1;stroke:#000000;stroke-width:1;stroke-miterlimit:4;stroke-opacity:1;stroke-dasharray:none"
       id="path4698"
       d="m 103.62878,477.03575 c 6.29135,4.92267 12.99937,9.31166 19.84297,13.42616 10.04647,5.69963 19.14436,12.82991 28.01188,20.18322 8.19145,6.43705 15.95998,13.4144 24.1339,19.8694 7.08785,5.59731 10.83329,8.02914 18.38341,13.29167 14.83446,10.33757 29.25901,21.26242 44.77192,30.58491 4.73103,2.84311 19.01754,10.91985 23.80464,13.63926 23.1198,13.16468 47.62548,23.43254 72.18302,33.52437 23.6787,9.989 47.75148,19.02214 71.84938,27.94367 22.47842,8.42023 45.05016,16.65892 67.25477,25.7832 12.68492,5.62983 26.01605,9.53762 39.08213,14.13467 0,0 -23.60145,15.87321 -23.60145,15.87321 l 0,0 c -12.58833,-5.14568 -25.51688,-9.44096 -37.9357,-15.00759 -22.0303,-9.25801 -44.39922,-17.69139 -66.81799,-25.95772 -24.05313,-9.04356 -48.12782,-18.06515 -71.79525,-28.08631 -24.6024,-10.14092 -49.06275,-20.66156 -72.19426,-33.91525 -6.46167,-3.6737 -17.49639,-9.88361 -23.8483,-13.74967 -15.52953,-9.45199 -30.08482,-20.36065 -45.22372,-30.40632 -15.22407,-10.07927 -29.87909,-20.91312 -43.99212,-32.50517 -8.95285,-7.11946 -18.00792,-14.18005 -28.096882,-19.65057 -6.973225,-4.17163 -13.722476,-8.68876 -20.677565,-12.88687 0,0 24.865217,-16.08827 24.865217,-16.08827 z"
       inkscape:connector-curvature="0" />
    <text
       xml:space="preserve"
       style="font-size:20px;font-style:normal;font-weight:normal;line-height:125%;letter-spacing:0px;word-spacing:0px;fill:#000000;fill-opacity:1;stroke:none;font-family:Sans"
       x="436"
       y="192.36218"
       id="text4700"
       sodipodi:linespacing="125%"><tspan
         sodipodi:role="line"
         id="tspan4702"
         x="436"
         y="192.36218">no</tspan></text>
    <text
       xml:space="preserve"
       style="font-size:20px;font-style:normal;font-weight:normal;line-height:125%;letter-spacing:0px;word-spacing:0px;fill:#000000;fill-opacity:1;stroke:none;font-family:Sans"
       x="550"
       y="72.362183"
       id="text4704"
       sodipodi:linespacing="125%"><tspan
         sodipodi:role="line"
         id="tspan4706"
         x="550"
         y="72.362183">sí</tspan></text>
    <path
       style="fill:#000000;fill-opacity:1;stroke:#000000;stroke-width:1;stroke-miterlimit:4;stroke-opacity:1;stroke-dasharray:none"
       id="path4710"
       d="m 483.19825,153.64216 c 4.55881,0.38835 9.07634,1.24135 13.64751,1.66666 3.89061,0.70987 7.52264,2.23065 11.31269,3.27929 3.529,1.42948 6.79498,3.26233 9.90947,5.43515 3.53009,2.25324 7.15474,4.34624 10.6843,6.61258 3.66829,1.79935 7.39717,3.51304 11.16546,5.10394 4.07587,1.43981 8.10255,3.0713 11.97325,5.00263 4.6312,2.14335 9.30443,4.199 14.01215,6.18172 4.68489,2.08479 9.23025,4.46293 13.89113,6.59527 4.3964,1.83861 8.22337,4.59078 12.21601,7.12705 4.02351,2.83131 8.16047,5.4748 12.02708,8.52429 4.70199,3.18723 9.57401,6.10789 14.23808,9.35333 5.55824,3.07583 11.14046,6.10489 16.6297,9.30374 4.71328,3.32634 9.53236,6.45488 14.45541,9.46501 4.93989,3.10891 10.04877,5.93005 15.15403,8.75539 5.57837,3.55671 11.54439,6.29745 17.48404,9.17129 5.81663,2.41025 11.38529,5.35268 17.09918,7.98258 3.93713,1.40066 7.51737,3.55273 11.13047,5.61172 6.26279,3.18388 12.8012,5.77746 19.1712,8.72736 4.37571,1.88893 8.69704,4.13831 12.26057,7.33893 2.56825,3.62311 3.93467,7.87226 5.19743,12.08211 1.424,5.04033 2.40963,10.18507 3.63903,15.27004 1.37221,5.1939 1.98988,10.50688 2.28565,15.85631 0.22408,7.43174 0.1089,14.86947 0.0994,22.30375 0.0279,7.05381 0.0935,14.10754 0.0926,21.16143 -0.19076,6.97267 0.55291,13.91115 1.05431,20.85578 0.25927,8.18619 1.25811,16.31288 1.96088,24.466 0.56464,7.44771 0.83059,14.91444 0.93894,22.38155 -0.19801,7.62445 0.56021,15.21547 1.0907,22.81146 0.31741,8.36916 1.1234,16.70292 2.14386,25.01295 1.38332,9.68473 1.95374,19.44486 2.33034,29.21132 0.0655,9.57329 1.1804,19.08296 2.78914,28.50665 1.16856,8.44791 3.52845,16.64817 5.55808,24.91085 1.14788,3.79863 0.54423,9.28183 4.52397,11.419 4.31489,0.99114 8.86127,0.78601 13.26908,0.78316 5.2499,-0.82617 10.5185,-1.46953 15.81796,-1.87222 4.31573,-0.50718 8.73207,0.12262 12.99405,-0.72261 4.59842,-0.80046 9.2423,-1.25332 13.90393,-1.42358 5.22247,-0.18597 10.44895,-0.13505 15.67361,-0.13948 4.7928,-0.0127 9.58557,-0.0301 14.37838,-0.0395 4.23805,-0.0228 8.47593,0.006 12.7139,0.0186 7.09733,0.0848 14.19506,0.12546 21.29271,0.17944 4.18733,-0.003 8.37463,-0.0273 12.56189,-0.0499 2.61993,-0.0141 4.79951,0.20489 7.08336,-1.13081 -29.55688,17.75969 -17.86658,19.68288 -33.86715,8.09986 -5.20671,-3.60779 -10.536,-7.14761 -15.22303,-11.42751 -2.60207,-3.02263 -4.80462,-6.66512 -5.71526,-10.57769 8.98633,-4.58292 17.71142,-9.7189 26.95899,-13.74876 0.19979,-0.0871 11.19268,9.32832 12.02982,10.04112 4.13471,3.77406 8.91237,7.12267 11.68421,12.0891 1.87487,4.58089 -1.01861,8.20475 -3.54435,11.81258 -3.37608,4.42062 -5.80599,9.42663 -8.69798,14.15183 -3.33617,5.00371 -7.18621,9.67519 -11.41475,13.94707 -2.14779,2.08058 -4.36533,4.08692 -6.5639,6.11319 0,0 -27.04449,11.11686 -27.04449,11.11686 l 0,0 c 2.17533,-2.11644 4.54134,-3.98341 6.65157,-6.16869 4.46408,-3.86242 8.05437,-8.56219 11.62541,-13.24391 3.09755,-4.64343 5.34613,-9.73173 8.58581,-14.27959 1.66512,-2.24737 5.26108,-5.93297 4.73979,-8.83735 -2.02449,-4.78491 -7.08627,-7.78193 -10.59753,-11.37718 -2.76181,-2.37498 -5.4576,-4.72236 -8.49167,-6.74836 -10.96369,-7.32101 -10.86911,0.72324 21.4184,-16.83761 -0.33713,-0.24254 -0.64901,-0.9305 -1.01139,-0.72761 -0.70533,0.3949 3.55825,7.25115 4.31073,7.85249 4.56903,4.20582 9.6491,7.84469 14.82705,11.25784 18.01513,12.71604 14.58198,7.8475 -14.16244,25.61292 -6.46601,0.12672 -12.93499,-0.10186 -19.4016,-0.0416 -7.26233,0.0541 -14.52473,0.0955 -21.78675,0.1792 -4.25243,0.0123 -8.50478,0.0397 -12.75728,0.0101 -4.74388,-0.0174 -9.4877,-0.0501 -14.23161,-0.0581 -5.22041,0.0129 -10.44403,0.0483 -15.65829,0.32437 -4.64723,0.34893 -9.26662,0.90426 -13.86863,1.64412 -4.3215,0.24194 -8.65858,0.15704 -12.97336,0.55571 -5.30551,0.46723 -10.56423,1.37211 -15.88581,1.60911 -4.87389,-0.0462 -10.21422,0.38854 -14.58407,-2.11148 -4.25091,-3.6935 -4.2209,-8.24148 -5.11254,-13.49893 -1.80585,-8.39662 -4.11359,-16.68979 -5.33462,-25.20762 -1.68909,-9.53512 -2.9093,-19.17586 -2.93146,-28.87518 -0.30885,-9.65955 -0.8486,-19.3241 -2.351,-28.88325 -1.21042,-8.33664 -1.92953,-16.74009 -2.25986,-25.15691 -0.54196,-7.61744 -1.57794,-15.20849 -1.37398,-22.85878 -0.0568,-7.43121 -0.10053,-14.86899 -0.67327,-22.28299 -0.65975,-8.16362 -1.73187,-16.28875 -1.98609,-24.48149 -0.53887,-6.98108 -1.63291,-13.935 -1.34549,-20.95158 0.01,-7.09124 0.0956,-14.18211 0.13257,-21.27325 -0.0117,-7.33119 -0.0376,-14.66462 -0.35568,-21.99027 -0.29245,-5.16175 -0.74407,-10.32558 -2.11115,-15.3342 -1.25733,-5.0208 -2.03186,-10.16086 -3.58145,-15.11582 -1.14296,-3.65552 -2.2522,-7.44603 -4.54474,-10.56951 -3.40755,-2.8805 -7.3156,-5.08812 -11.36754,-6.93345 -6.47475,-3.05154 -13.13611,-5.67362 -19.64162,-8.65118 -3.59902,-1.91518 -7.07481,-4.06712 -10.87762,-5.57914 -5.59425,-2.78946 -11.18825,-5.57414 -16.90206,-8.11357 -6.03083,-2.86757 -12.01613,-5.76279 -17.75268,-9.1976 -5.12893,-2.83796 -10.18915,-5.79822 -15.17387,-8.88183 -4.93119,-2.97055 -9.66646,-6.21786 -14.45022,-9.41303 -5.52482,-3.248 -11.14848,-6.31024 -16.69491,-9.51316 -4.76228,-3.22966 -9.80386,-6.02563 -14.46578,-9.40028 -3.86871,-2.91938 -7.93868,-5.55556 -11.93143,-8.29985 -3.8545,-2.5491 -7.78527,-4.90655 -12.01643,-6.7946 -4.54825,-2.2366 -9.08321,-4.5016 -13.70527,-6.58404 -4.74117,-2.06736 -9.57869,-3.89836 -14.22502,-6.1782 -3.92313,-1.77261 -7.91714,-3.36832 -11.93678,-4.90835 -3.8503,-1.72501 -7.7961,-3.29837 -11.42514,-5.46511 -3.58539,-2.20855 -7.15356,-4.44128 -10.72616,-6.66706 -2.98904,-1.87451 -6.10081,-3.55401 -9.45554,-4.68868 -3.58906,-1.1341 -7.16567,-2.37612 -10.91067,-2.90133 -4.55855,-0.53485 -9.11475,-1.47459 -13.72206,-1.23205 0,0 24.00416,-17.44005 24.00416,-17.44005 z"
       inkscape:connector-curvature="0" />
    <path
       style="fill:#000000;fill-opacity:1;stroke:#000000;stroke-width:1;stroke-miterlimit:4;stroke-opacity:1;stroke-dasharray:none"
       id="path4722"
       d="m 601.34967,798.45576 c -0.42711,7.65863 -0.1209,15.33177 -0.56009,22.98709 -0.4965,8.10957 -2.42624,15.999 -3.75985,23.98523 -1.53335,6.81989 -2.87971,13.68181 -4.4487,20.49412 0.0976,0.22619 -4.20999,16.46513 -2.32883,10.65925 8.301,-4.21462 16.44899,-8.79426 24.56817,-13.38667 19.62489,-11.11084 -15.70941,9.21132 -23.69202,13.58894 -1.73736,0.95276 3.28688,-2.21454 4.90231,-3.36195 4.26922,-3.03234 8.40989,-6.17032 12.78709,-9.04955 23.33059,-13.86001 79.46424,-45.52398 9.80087,-5.74252 -6.30313,3.59942 5.65385,-3.56077 6.79955,-4.41496 4.17097,-3.25849 5.60087,-8.35202 7.49674,-13.06425 1.04597,-2.36534 2.6109,-3.63328 -0.22253,-4.88541 -2.36738,-1.04618 -3.61512,-1.20832 -6.23467,-1.84713 -9.48057,-0.73633 -18.60639,-2.98208 -27.80153,-5.25305 -4.5621,-0.96966 -2.37442,-0.3473 -6.57414,-1.82767 0,0 34.40806,-23.34966 34.40806,-23.34966 l 0,0 c 3.88472,1.20392 1.81504,0.61428 6.2191,1.73333 9.17718,2.49776 18.41473,4.05527 27.83642,5.32175 5.84377,1.81365 14.43973,5.29541 10.33643,12.84257 -2.65733,4.72926 -3.30689,10.40683 -6.8118,14.68155 -10.97689,10.57792 -42.81462,26.00656 -45.09141,27.29672 -10.71193,6.06999 21.28231,-12.38649 31.93435,-18.561 1.25244,-0.72599 -2.49028,1.4769 -3.73542,2.21534 -4.34269,2.5144 -4.28908,2.34917 -8.54273,5.40026 -0.46203,0.33141 -9.26715,6.98535 -9.61849,7.19665 -13.33914,8.02249 -26.86926,15.72316 -40.32743,23.54434 -1.8281,1.06239 -3.68712,2.07066 -5.53067,3.10598 -6.22526,3.45032 -17.23088,10.84832 -24.13629,11.84011 -1.07373,0.15421 -2.16874,-0.0573 -3.2531,-0.086 -0.90902,-0.70594 -2.00747,-1.21956 -2.72704,-2.11782 -3.12645,-3.90284 2.24809,-10.29661 2.17032,-14.50885 1.60727,-6.7572 2.72648,-13.595 4.64203,-20.28253 1.29387,-7.9257 3.34926,-15.70352 3.99137,-23.72399 0.81025,-7.42754 0.34884,-14.92414 0.11657,-22.38042 0,0 37.38736,-19.04981 37.38736,-19.04981 z"
       inkscape:connector-curvature="0" />
    <path
       style="fill:#000000;fill-opacity:1;stroke:#000000;stroke-width:1;stroke-miterlimit:4;stroke-opacity:1;stroke-dasharray:none"
       id="path4724"
       d="m 502.49733,631.21361 c 0.97748,6.84562 2.61436,13.58835 4.72166,20.17076 1.57411,5.81148 3.48314,11.53091 4.80923,17.40741 1.34731,5.75429 4.02901,10.98848 4.44444,16.9255 -2.92601,19.61749 -29.88231,27.28688 -48.20977,28.07549 -8.77416,0.20699 -17.35183,2.31045 -26.0126,3.56518 -8.92619,0.69635 -17.6822,2.13783 -26.50724,3.55935 -1.02297,0.34457 -2.04593,0.68913 -3.0689,1.0337 0,0 32.95862,-25.27196 32.95862,-25.27196 l 0,0 c 1.07059,-0.20867 2.14118,-0.41733 3.21177,-0.62599 8.7038,-1.39278 17.45714,-2.12887 26.19146,-3.29794 8.82195,-1.46938 17.60862,-3.28008 26.5703,-3.67497 2.12292,-0.31672 4.01006,-0.47773 6.03439,-1.20927 0.8244,-0.29792 3.12137,-1.58942 2.37373,-1.13178 -11.09983,6.79441 -22.29448,13.4327 -33.44172,20.14906 2.13595,-1.15254 1.25491,-0.37479 2.65694,-2.31748 0.89924,-5.65984 -2.88747,-10.62147 -3.89624,-16.09797 -1.16769,-5.80787 -3.14892,-11.38368 -4.4998,-17.14699 -2.02353,-6.71626 -3.59114,-13.54216 -5.3322,-20.33239 0,0 36.99593,-19.77971 36.99593,-19.77971 z"
       inkscape:connector-curvature="0" />
    <path
       style="fill:#000000;fill-opacity:1;stroke:#000000;stroke-width:1;stroke-miterlimit:4;stroke-opacity:1;stroke-dasharray:none"
       id="path4730"
       d="m 1119.5363,490.11694 c 5.3036,-1.93137 10.4822,-4.16185 15.6159,-6.50512 5.3606,-2.57326 10.6554,-5.34171 15.7827,-8.35089 3.1713,-1.62429 6.3775,-3.21525 9.6558,-4.61499 2.8222,-0.74442 5.4781,-1.8905 8.2214,-2.87933 4.6439,-1.60909 5.5248,0.88098 4.6397,5.08481 -1.5354,5.12227 -4.276,9.74236 -6.9178,14.35067 -2.8177,5.31632 -5.9187,10.4386 -9.2185,15.46582 -3.5046,5.58622 -7.347,10.94636 -10.9533,16.46559 -5.0537,8.24547 -14.6052,24.55889 -26.5229,18.44194 -3.7272,-3.93656 -6.0744,-8.99206 -8.633,-13.72673 -2.3565,-4.29404 -4.7142,-8.57613 -6.7715,-13.024 0,0 18.0252,-10.1547 18.0252,-10.1547 l 0,0 c 1.9013,4.46779 4.0802,8.7941 6.4437,13.03566 1.3951,2.62565 2.7929,5.18285 4.402,7.68423 0.7557,1.1748 1.6085,2.66352 2.6335,3.66768 0.3237,0.31714 0.744,0.51763 1.116,0.77644 7.4496,-0.15897 1.4288,-0.19644 -15.6062,9.92044 -0.515,0.30591 1.0859,-0.55123 1.5106,-0.97373 2.1261,-2.11504 2.9318,-5.22747 4.8341,-7.5067 3.6118,-5.48166 7.3441,-10.87962 10.862,-16.4222 3.2617,-5.00566 6.5567,-9.95621 9.2092,-15.3268 2.5305,-4.45152 5.3089,-8.83184 6.9203,-13.72497 0.9912,-3.37754 1.6221,-2.37578 -2.3476,-1.21814 -2.6964,1.04253 -5.4572,1.89329 -8.133,2.98067 -3.1411,1.48241 -6.3297,2.87881 -9.3469,4.608 -5.1761,2.79028 -10.3035,5.68833 -15.6961,8.05027 -5.3723,2.40335 -10.7762,4.88577 -16.4526,6.47638 0,0 16.7273,-12.5803 16.7273,-12.5803 z"
       inkscape:connector-curvature="0" />
    <path
       style="fill:#000000;fill-opacity:1;stroke:#000000;stroke-width:1;stroke-miterlimit:4;stroke-opacity:1;stroke-dasharray:none"
       id="path4732"
       d="m 1098.685,868.62054 c 4.3976,-1.77758 8.5693,-4.03324 12.7953,-6.17343 4.6552,-2.27246 9.3094,-4.54014 13.8377,-7.05945 3.4991,-1.51363 6.9334,-3.16142 10.3901,-4.7683 3.0276,-1.29577 6.0544,-2.59922 8.9043,-4.25714 2.3121,-1.19437 4.4995,-2.62104 6.9374,-3.55132 2.0118,-0.69538 4.0194,-1.39986 6.0913,-1.92872 2.5561,-0.81328 5.1518,-1.54589 7.6529,-2.51832 2.5921,-0.86371 5.0787,-1.99908 7.6052,-3.0291 0.7734,-0.17948 4.56,-2.08168 5.0988,-1.38333 0.3224,0.4179 0.3987,0.97747 0.5981,1.4662 -0.106,0.43067 -0.1639,0.87615 -0.3181,1.29199 -0.2955,0.7965 -1.4016,2.85758 -1.7592,3.53324 -1.1758,2.22107 -2.4178,4.40296 -3.6544,6.5905 -2.8671,5.12885 -5.4828,10.3906 -8.267,15.56335 -2.8169,5.7628 -6.3066,11.14241 -9.5661,16.65373 -2.6895,4.7431 -5.1292,9.64232 -7.2138,14.68148 -1.7009,4.63351 -3.5202,9.22285 -5.2448,13.84765 -0.9585,2.86747 -1.9531,5.72237 -3.1374,8.50512 -1.0055,2.13588 -2.2688,4.12792 -3.5617,6.09727 -9.8459,10.34625 -13.7212,9.34991 -22.5555,5.06125 -3.8077,-1.82345 -7.1405,-4.39545 -10.2851,-7.17515 -2.833,-2.52619 -5.324,-5.40156 -7.8792,-8.20125 -2.9423,-2.99501 -5.8865,-5.96159 -8.7399,-9.04411 -2.3776,-2.48519 -4.3167,-5.3194 -6.3137,-8.10543 -1.7884,-2.54036 -3.8957,-4.82568 -5.8219,-7.25842 -0.2829,-0.30182 -0.5659,-0.60363 -0.8489,-0.90544 0,0 12.5284,-7.58573 12.5284,-7.58573 l 0,0 c 0.2903,0.3361 0.5805,0.6722 0.8708,1.0083 1.9128,2.47306 3.9865,4.81329 5.8367,7.3357 1.9092,2.7634 3.8159,5.53015 6.0835,8.01969 2.8468,3.09151 5.8003,6.0571 8.7537,9.04551 2.524,2.76575 5.0742,5.5182 7.8427,8.04231 3.0327,2.68458 6.2325,5.19607 9.9375,6.90242 1.5439,0.68516 2.5555,1.19669 4.1644,1.67608 0.5776,0.17212 1.166,0.31868 1.7629,0.40255 0.5063,0.0712 1.951,-0.23379 1.5328,0.0606 -8.6748,6.107 -15.8764,8.30948 -10.3647,6.55607 1.4609,-1.79263 2.5494,-3.85408 3.7203,-5.84148 1.3475,-2.75274 2.3801,-5.65022 3.4186,-8.53022 1.7916,-4.62964 3.6831,-9.22456 5.3205,-13.91047 1.999,-5.16277 4.6091,-10.08915 7.2651,-14.93944 3.2211,-5.52405 6.8496,-10.81513 9.5948,-16.60927 2.7722,-5.14531 5.3513,-10.39126 8.1328,-15.53234 1.931,-3.44577 3.838,-6.90439 5.5265,-10.47731 0.1969,0.16116 0.4837,0.25263 0.5905,0.48348 0.011,0.0235 -4.5489,1.68161 -4.5286,1.72478 -2.5338,1.06402 -5.0786,2.10919 -7.6805,2.99679 -2.5673,0.83876 -5.1268,1.70071 -7.7211,2.45371 -2.0154,0.64492 -4.0346,1.2687 -5.9911,2.08162 -2.3065,1.09996 -4.5055,2.40823 -6.7639,3.60194 -2.8821,1.51236 -5.8786,2.77421 -8.8544,4.08899 -3.4556,1.61399 -6.9248,3.19966 -10.3594,4.85575 -4.4992,2.37107 -9.0776,4.57808 -13.6288,6.84613 -4.3975,2.26026 -8.7736,4.62148 -13.4297,6.31582 0,0 11.6953,-9.00482 11.6953,-9.00482 z"
       inkscape:connector-curvature="0" />
    <path
       style="fill:#000000;fill-opacity:1;stroke:#000000;stroke-width:1;stroke-miterlimit:4;stroke-opacity:1;stroke-dasharray:none"
       id="path4736"
       d="m 785.15479,1355.4857 c -26.786,-1.3386 -53.57804,-2.3305 -80.38877,-3.1078 -63.57703,-1.3115 -127.13349,-3.5421 -190.68284,-5.8068 -20.20062,-1.0941 -40.46284,-0.9189 -60.65078,-2.2976 -5.66016,-0.3866 -13.48953,-0.9347 -19.17433,-2.7793 -1.71392,-0.5561 -3.23016,-1.5979 -4.84524,-2.3969 -0.89017,-1.038 -2.02714,-1.9075 -2.67053,-3.1142 -2.28558,-4.2866 -0.37837,-9.4506 1.0236,-13.6137 1.41467,-4.2007 3.79702,-10.0331 5.36831,-14.0035 10.21485,-24.6669 19.93802,-49.6046 26.93157,-75.4066 2.0735,-7.65 3.7993,-15.3901 5.69895,-23.0851 8.0806,-34.8535 11.87212,-70.4768 16.20592,-105.9299 3.91324,-32.0127 2.40225,-19.9712 6.53244,-51.4027 5.79322,-40.2227 11.00218,-80.51523 15.67998,-120.88126 3.35384,-26.45263 7.22553,-52.8204 9.24228,-79.41911 0.47779,-9.05984 0.93894,-18.1474 0.88959,-27.22295 -1.30264,6.6861 0.32189,-2.53604 16.33974,-7.15959 1.75189,-0.50568 -2.49353,2.665 -3.64559,4.07836 -5.4804,6.72336 -10.33314,14.01089 -15.31002,21.10324 -6.20193,8.58751 -12.07533,17.4149 -18.48979,25.84915 -5.24642,6.89842 -10.86889,13.51439 -16.27643,20.28613 1.67466,-0.10397 -5.88893,6.41237 -4.1681,7.03904 0.29991,0.10921 0.54649,-0.34512 0.85239,-0.43622 0.82814,-0.24664 1.67669,-0.42651 2.52865,-0.57074 1.43794,-0.24344 2.89006,-0.39418 4.33508,-0.59126 13.2933,-1.96189 26.46104,-4.68414 39.66569,-7.16071 6.61392,-0.9119 13.10456,-2.44264 19.64022,-3.74551 4.70126,-1.3316 9.39094,-2.81572 13.91538,-4.66975 6.7493,-2.68003 17.40863,-9.08197 -12.98877,7.78657 -0.36917,0.20486 0.69287,-0.48825 0.99755,-0.78053 0.7125,-0.6835 0.60154,-0.71434 0.83377,-1.59081 -0.0588,-0.464 -0.0648,-0.93779 -0.17648,-1.39199 -0.53366,-2.17146 -1.67083,-4.21359 -2.49779,-6.27312 -0.88017,-2.19203 -1.37981,-3.80166 -2.1361,-6.06063 -2.05206,-6.9035 -4.66713,-13.60865 -7.542,-20.20494 -1.84852,-5.40766 -4.56022,-10.35574 -7.31716,-15.32538 -2.78806,-4.37679 -4.82055,-9.13379 -6.73974,-13.93566 -0.22064,-0.63258 -0.44127,-1.26515 -0.66191,-1.89773 0,0 18.11211,-9.96417 18.11211,-9.96417 l 0,0 c 0.1881,0.61289 0.37621,1.22578 0.56431,1.83867 1.7416,4.77892 3.68572,9.46181 6.4396,13.76352 0.91626,1.62409 1.93304,3.19047 2.83686,4.82152 1.88507,3.40182 2.86099,7.22665 4.43372,10.76935 2.85342,6.65703 5.40229,13.42958 7.64088,20.31949 1.73363,4.79377 4.05569,9.3154 5.68906,14.12992 0.10962,1.33099 0.27556,3.30517 -1.12831,4.17433 -8.07202,4.9975 -14.32122,9.55797 -22.57017,12.53534 -4.60271,1.66122 -9.24661,3.27328 -14.0291,4.33638 -6.28788,1.36641 -12.63675,2.30747 -19.00903,3.19462 -13.34661,2.24189 -26.6171,4.89511 -39.93434,7.29642 -2.60197,0.42508 -8.2295,2.42248 -10.21318,-0.74768 -1.70952,-2.73201 4.01067,-7.49823 4.94778,-9.13469 5.76879,-6.80676 11.72369,-13.50137 17.18451,-20.56099 6.43061,-8.31334 12.16876,-17.13288 18.25799,-25.69117 3.33785,-4.91992 6.83337,-10.08222 10.19432,-14.99942 1.30815,-1.91389 2.6209,-3.82463 3.9365,-5.7334 0.94522,-1.37139 1.45781,-3.18662 2.84595,-4.10707 6.44497,-4.27356 13.29022,-7.96327 20.2958,-11.23784 0.48355,-0.22602 0.57957,0.89652 0.86935,1.34478 -1.07575,9.41666 -1.79153,18.87261 -2.87216,28.29429 -3.02272,26.88261 -7.2831,53.57931 -11.04065,80.36415 -0.94152,7.36966 -3.59304,28.28609 -4.58912,35.40983 -4.03789,28.8783 -8.93154,57.62652 -13.09757,86.48532 -3.62217,25.7991 -3.66098,25.4272 -6.96044,51.5928 -4.4503,35.2921 -7.98418,70.771 -15.24951,105.6362 -1.69579,7.6226 -3.23889,15.2809 -5.08736,22.8679 -6.13722,25.1902 -14.68085,49.7023 -23.62732,74.0083 -1.04684,2.9819 -3.60887,10.1956 -4.68455,13.541 -1.08339,3.3694 -3.12148,8.0943 -1.54829,11.7051 0.4345,0.9973 1.28667,1.7544 1.93,2.6316 1.33711,0.7947 2.57164,1.7952 4.01132,2.384 5.1554,2.1084 11.94447,3.0744 17.24216,3.7438 19.18717,2.4244 38.56226,2.8021 57.82608,4.2702 63.36237,3.4258 126.81057,5.8346 190.27068,6.0569 16.02913,0.049 39.39853,0.2572 55.79478,-0.178 6.25346,-0.166 12.49574,-0.6253 18.74491,-0.9104 4.04988,-0.1848 8.10067,-0.2747 12.15186,-0.4087 0,0 -16.89817,12.2773 -16.89817,12.2773 z"
       inkscape:connector-curvature="0" />
    <path
       style="fill:#000000;fill-opacity:1;stroke:#000000;stroke-width:1;stroke-miterlimit:4;stroke-opacity:1;stroke-dasharray:none"
       id="path4738"
       d="m 1213.0775,155.56628 c 6.5725,1.06689 13.1855,1.72849 19.8262,2.20242 27.1219,3.3596 54.3055,6.1666 81.5376,8.48371 48.3311,3.18607 96.7701,4.58722 145.1812,6.00926 40.5109,1.0907 81.0374,1.30729 121.5607,1.26362 14.1647,0.23617 28.3276,-0.37666 42.4893,-0.41452 3.9558,-0.0106 11.4961,-0.54393 15.4347,1.96133 1.6844,1.07143 2.5323,3.08682 3.7984,4.63022 0.4856,2.41747 1.3141,4.79078 1.4568,7.25241 0.6319,10.902 -3.0551,25.95823 -5.1897,36.5208 -0.8877,4.39271 -6.7193,32.31467 -7.4772,35.94834 -7.9273,39.19846 -15.4833,78.4691 -23.5224,117.64503 -7.9828,40.33953 -16,80.68003 -22.6645,121.26133 -4.3496,26.69938 -7.3523,53.59011 -11.2393,80.35623 -0.4546,2.04323 -0.991,5.48597 -2.1148,7.52418 -0.3415,0.61924 -0.7621,1.27297 -1.3857,1.60629 -6.5935,3.52405 -13.1687,7.16331 -20.1289,9.89269 -0.5167,0.20263 -5.6355,-2.42733 -5.6835,-2.45077 -11.2524,-5.94376 -23.508,-9.56113 -35.6896,-13.03646 -22.2467,-5.73747 -44.945,-9.35736 -67.5552,-13.28946 -41.2662,-7.17657 -4.9101,-1.07147 -48.4393,-8.26841 -48.4555,-7.9517 -97.1912,-14.01528 -145.694,-21.65124 -18.5142,-2.61791 -36.5228,-7.74589 -54.8408,-11.32714 -5.4812,-0.56856 -10.6911,-2.28315 -15.8475,-4.13026 -3.1483,-1.00242 -6.3289,-1.89933 -9.3329,-3.28908 0,0 17.295,-11.49127 17.295,-11.49127 l 0,0 c 2.9564,1.25835 6.0138,2.23622 9.0527,3.27278 5.0165,1.713 10.0735,3.25373 15.2931,4.23301 17.1568,4.49381 33.8977,10.60593 51.4491,13.57253 47.835,8.92592 96.043,15.56655 144.17,22.69588 68.1393,10.24429 -14.7412,-2.2535 49.4794,7.5422 23.3893,3.56763 46.8445,6.83623 69.9943,11.79495 12.8028,3.10154 25.7018,6.21104 37.5612,12.1183 1.0157,0.38032 2.0043,0.84259 3.0469,1.14098 0.7762,0.22213 3.0276,-0.0767 2.3864,0.41395 -4.9055,3.75357 -10.5803,6.38443 -15.7295,9.79592 -0.6087,0.40328 1.5281,-0.24201 2.0615,-0.74064 1.595,-1.49087 2.8149,-5.98709 3.3573,-7.52318 6.3244,-27.02401 9.8142,-54.58268 14.5229,-81.91083 6.801,-40.54183 14.6865,-80.89364 22.5065,-121.24947 7.985,-39.13826 15.8784,-78.29564 23.3285,-117.53992 2.6227,-13.99732 4.1206,-21.56035 6.4129,-35.39148 1.7504,-10.56144 4.5078,-24.1166 3.5903,-34.92458 -0.1801,-2.12214 -0.9048,-4.16235 -1.3571,-6.24352 -0.999,-1.2552 -1.6587,-2.8809 -2.9968,-3.7656 -3.5889,-2.37273 -10.2491,-2.20416 -13.9186,-2.34299 -13.7096,-0.51865 -27.4456,-0.28567 -41.1591,-0.56014 -40.0804,-0.42281 -80.1635,-0.9164 -120.2252,-2.28212 -48.5457,-1.65376 -97.0986,-3.31674 -145.6098,-5.77711 -28.4047,-1.73797 -56.7948,-3.71744 -85.1712,-5.84393 -7.0085,-0.2957 -13.9831,-0.89379 -20.9539,-1.6732 0,0 17.1336,-12.02104 17.1336,-12.02104 z"
       inkscape:connector-curvature="0" />
    <path
       style="fill:#000000;fill-opacity:1;stroke:#000000;stroke-width:1;stroke-miterlimit:4;stroke-opacity:1;stroke-dasharray:none"
       id="path4740"
       d="m 1193.2785,586.90142 c 12.0655,1.15872 24.1951,1.6983 36.2935,2.52611 20.8227,0.77864 41.5567,2.68235 62.1139,6.08209 6.9339,1.12972 13.7531,2.94976 20.7431,3.72424 2.8565,0.70407 6.6178,-0.51597 9.3472,0.45605 0.6242,0.22232 1.1292,0.69382 1.6938,1.04073 0.4941,0.74455 1.091,1.4303 1.4823,2.23365 2.1953,4.50691 3.0655,12.08368 3.7661,16.88088 0.484,3.31367 2.5319,20.16577 2.814,22.46238 5.3814,40.20594 10.188,80.48132 14.7528,120.78702 5.2443,42.98551 8.7718,86.15334 13.5885,129.18403 1.7576,18.21684 4.2632,36.32594 6.899,54.42897 0.9495,9.67071 -3.2437,6.71634 -18.6884,14.00424 -0.016,0.007 -5.533,-4.08955 -5.7841,-4.27786 -13.0204,-8.81217 -28.8825,-12.07837 -43.9193,-15.73153 -28.5122,-6.3078 -57.5441,-10.08206 -86.5766,-13.02816 -14.3377,-1.51278 -28.8087,-1.65796 -43.1181,-3.44946 -4.9664,-0.45586 -9.7816,-1.54829 -14.5583,-2.91896 -3.5194,-1.09037 -6.7719,-2.75879 -9.94,-4.61291 -1.8808,-1.28711 -3.4563,-2.91791 -4.909,-4.65648 0,0 17.8008,-10.70552 17.8008,-10.70552 l 0,0 c 1.3224,1.54157 2.7732,2.96353 4.5004,4.05631 3.0713,1.711 6.2025,3.28505 9.6025,4.24875 4.5996,1.34899 9.2831,2.25079 14.0287,2.93373 13.5628,2.15401 27.2595,3.34716 40.8917,4.9568 29.0556,3.54224 58.1293,7.28842 86.8352,13.08837 15.8666,3.3631 32.5018,6.30134 46.554,14.85765 0.773,0.49657 3.3595,2.24001 4.4321,2.66934 0.3339,0.13364 1.368,-0.0554 1.0692,0.14458 -5.5709,3.72795 -11.3997,7.05518 -17.0996,10.58276 0.2157,-0.26008 0.5412,-0.45938 0.6472,-0.78024 0.2194,-0.66433 0.1978,-1.38518 0.2966,-2.07777 -0.089,-18.73717 -2.6443,-37.39924 -3.6106,-56.09422 -3.3992,-43.40397 -5.9742,-86.90655 -11.7927,-130.08003 -5.055,-39.85481 -10.3672,-79.69525 -17.632,-119.21904 -0.3792,-2.1539 -3.237,-18.5788 -3.9106,-21.76137 -0.5254,-2.48214 -1.1859,-4.9341 -1.8273,-7.38883 -0.862,-3.29894 -1.545,-6.7584 -3.9447,-9.33071 -3.3852,-1.19396 -7.1351,-0.18898 -10.629,-0.96844 -6.5805,-1.19908 -12.9498,-3.31192 -19.4908,-4.69731 -20.2182,-4.20081 -40.7669,-5.88448 -61.4013,-6.29232 -12.8189,-0.56232 -25.6404,-0.73284 -38.4538,-1.25648 0,0 17.1336,-12.02104 17.1336,-12.02104 z"
       inkscape:connector-curvature="0" />
    <path
       style="fill:#000000;fill-opacity:1;stroke:#000000;stroke-width:1;stroke-miterlimit:4;stroke-opacity:1;stroke-dasharray:none"
       id="path4742"
       d="m 1026.1249,819.70242 c -0.3087,7.01435 0.9245,14.00621 1.79,20.9471 1.5217,11.52197 3.2102,23.01856 4.5455,34.56478 0.877,9.1967 2.3035,18.31246 3.9781,27.39289 0.7418,4.7862 2.7943,9.28422 3.6254,14.03049 0.5987,8.73317 -10.2472,8.59631 -18.9826,13.15172 -0.7729,0.40302 -3.5279,-1.24374 -4.1398,-1.53234 -4.838,-3.01262 -9.5608,-6.19386 -14.3721,-9.24845 -7.05017,-4.01157 -14.51137,-7.27156 -22.20227,-9.8323 -4.41385,-1.66281 -8.10128,-2.46596 -7.61617,-7.92028 0.63167,-1.79713 1.72503,-3.23295 3.39894,-4.19469 10.25402,-5.89145 14.84548,-10.27934 24.307,-12.27091 6.3364,-1.70216 12.9282,-1.76859 19.4149,-2.40604 7.1905,-0.71188 14.4089,-1.07607 21.6263,-1.3788 7.4752,-0.70858 7.3685,4.53757 6.3828,10.27394 -1.3643,5.72509 -3.7032,11.14081 -5.7413,16.64228 -0.968,2.33453 -1.8303,4.69084 -2.4677,7.13576 0,0 -18.6684,8.96695 -18.6684,8.96695 l 0,0 c 0.562,-2.56985 1.2647,-5.07094 2.4767,-7.4253 2.0715,-5.43837 4.64,-10.70546 6.0425,-16.38175 1.0796,-5.48552 2.0762,-7.49957 -4.495,-7.15995 -7.1386,0.18267 -14.2703,0.57414 -21.3721,1.34341 -6.54715,0.5928 -13.15356,0.9995 -19.49712,2.87062 -0.79031,0.24199 -1.59196,0.44967 -2.37093,0.72599 -0.69881,0.24789 -2.69021,1.2319 -2.05771,0.84496 5.18283,-3.17067 10.5304,-6.06566 15.7298,-9.20907 1.1146,-0.67385 -5.97851,2.95124 -3.87217,2.67154 -2.23297,3.26204 3.52556,4.55947 5.56495,5.53537 7.66748,2.93225 15.20248,6.25436 22.40038,10.21154 4.8513,2.92004 9.5507,6.13432 14.6353,8.6373 0.9041,0.28217 1.6446,0.62387 2.6021,0.56878 0.3196,-0.0184 1.205,-0.3962 0.9332,-0.22711 -5.6502,3.51445 -11.4611,6.7662 -17.1071,10.28739 -0.2323,0.1449 0.6213,0.0719 0.8119,-0.12468 0.2252,-0.23218 0.1497,-0.62932 0.2245,-0.94398 -0.016,-2.03583 -0.7264,-3.71787 -1.2208,-5.68499 -0.7017,-2.79192 -1.2194,-5.63294 -1.919,-8.42579 -1.5583,-9.22937 -2.2441,-18.58265 -3.3511,-27.87151 -1.1893,-11.51471 -3.1697,-22.89438 -4.8789,-34.33771 -0.9789,-6.90347 -2.2834,-13.78682 -2.7687,-20.74453 0,0 18.6107,-9.48263 18.6107,-9.48263 z"
       inkscape:connector-curvature="0" />
    <path
       style="fill:#000000;fill-opacity:1;stroke:#000000;stroke-width:1;stroke-miterlimit:4;stroke-opacity:1;stroke-dasharray:none"
       id="path4744"
       d="m 1033.2375,686.40688 c -0.2302,4.8162 -0.2392,9.64193 -0.2685,14.46296 -0.017,5.83478 -0.014,11.6695 0.063,17.50382 -0.081,3.3752 0.067,6.68081 0.702,9.99222 0.4249,4.28485 0.9633,8.55848 1.4944,12.83393 0.1555,0.76295 0.3877,2.26928 0.779,3.05542 0.5119,1.02835 1.6045,-1.27873 0.9758,-0.94608 -5.8176,3.0783 -11.4343,6.52203 -17.1515,9.78304 2.1888,-1.99637 4.3467,-4.02388 6.2305,-6.31567 1.7174,-2.26452 3.5774,-4.41546 5.5258,-6.48269 1.2305,-1.73963 2.9673,-3.4265 3.3777,-5.59014 -1.0226,-2.30154 -3.9755,-2.28608 -6.1187,-2.82708 -5.8237,-1.16375 -11.695,-1.97503 -17.6111,-2.48369 -7.8573,-0.99847 -15.75686,-1.52292 -23.66848,-1.80818 -3.06025,-0.0861 -6.12176,-0.1126 -9.18309,-0.11256 -0.76825,10e-6 -1.55978,-0.18076 -2.30475,0.007 -0.47495,0.11966 -1.60997,1.11145 -1.18283,0.87176 5.81757,-3.26456 11.57549,-6.63431 17.36324,-9.95147 1.08777,3.7722 7.86011,8.48789 10.89601,10.78243 4.8121,3.45719 9.6409,6.88943 15.191,9.0423 3.1564,1.24616 6.3824,2.39202 9.6716,3.24253 0,0 -17.16,11.7539 -17.16,11.7539 l 0,0 c -3.2774,-1.01782 -6.5364,-2.13453 -9.6545,-3.57593 -5.44231,-2.57223 -10.28607,-6.13357 -15.13299,-9.67363 -4.73278,-3.62674 -10.2181,-7.24545 -12.83324,-12.77692 6.01909,-3.89351 11.92285,-7.97142 18.05729,-11.68055 0.35944,-0.21733 3.40035,-0.0671 3.68953,-0.0586 2.98404,0.0879 5.96711,0.20724 8.94921,0.34409 7.9211,0.38363 15.8222,1.01048 23.7053,1.88256 6.1018,0.48917 12.1881,1.23381 18.1893,2.46134 3.313,0.7645 6.4159,1.52452 7.7549,4.99356 0.4357,3.15868 -1.31,4.53064 -2.8053,7.0424 -1.7573,2.21949 -3.8979,4.1097 -5.6333,6.36056 -1.6866,2.51905 -3.8544,4.50776 -5.9187,6.68366 -6.7459,4.01291 -18.7811,16.01789 -21.5075,8.99844 -0.2489,-0.64066 -0.6368,-2.97791 -0.7269,-3.46886 -0.4314,-4.21004 -1.0737,-8.38737 -1.6634,-12.57567 -0.6369,-3.48724 -0.8281,-6.93799 -0.5788,-10.48795 0.077,-5.85568 0.08,-11.71174 0.063,-17.56787 -0.029,-4.72976 -0.035,-9.46472 -0.2684,-14.18938 0,0 18.6937,-9.52491 18.6937,-9.52491 z"
       inkscape:connector-curvature="0" />
    <path
       style="fill:#000000;fill-opacity:1;stroke:#000000;stroke-width:1;stroke-miterlimit:4;stroke-opacity:1;stroke-dasharray:none"
       id="path4748"
       d="m 1030.409,443.16215 c -0.2327,4.61701 -0.2368,9.24402 -0.2191,13.86596 0.035,3.93023 0.095,7.86017 0.1263,11.79045 0.2236,3.20795 -0.3149,6.34333 -0.9558,9.47027 -0.831,3.3929 -1.3623,6.8385 -1.6549,10.31618 -0.2138,3.36906 -0.3186,6.75392 -0.2154,10.1292 0.068,0.10457 0.1221,0.40745 0.2046,0.31371 0.1577,-0.17936 0.092,-0.46878 0.1379,-0.70317 0.2222,-0.25636 0.4135,-0.54309 0.6665,-0.76908 0.3523,-0.31472 1.5518,-1.07273 1.1387,-0.84358 -16.2923,9.03753 -20.9119,13.52223 -14.6632,7.75829 2.9981,-3.14216 5.5347,-6.67581 7.9994,-10.23996 1.8036,-2.58491 3.6137,-5.16769 5.5515,-7.65425 2.6258,-2.90139 3.4932,-2.65103 -0.2211,-4.40927 -5.2918,-1.82943 -10.991,-1.95434 -16.5345,-2.15365 -4.8121,0.005 -9.6662,-0.35229 -14.45802,0.1778 -4.33972,0.49241 -8.65936,0.88917 -12.97077,1.58023 -1.90446,0.34019 -3.82632,0.37718 -5.66519,1.0273 -0.38985,0.13783 -1.48961,0.71536 -1.13109,0.50934 17.30374,-9.94368 23.92577,-8.55553 17.05462,-9.91765 1.5229,3.36402 5.11649,4.89267 8.14485,6.61556 3.6238,1.66782 7.0381,3.75341 10.223,6.14955 1.3581,1.00684 2.4881,2.26153 3.7253,3.40514 0,0 -17.69707,10.90825 -17.69707,10.90825 l 0,0 c -1.14397,-1.11441 -2.23393,-2.29664 -3.55357,-3.21162 -3.142,-2.27949 -6.41402,-4.3612 -9.91474,-6.05237 -3.68659,-2.08737 -7.50533,-4.11175 -9.4971,-8.0585 -0.1828,-0.59171 -1.05508,-1.41902 -0.5484,-1.77512 11.99155,-8.42774 14.64776,-10.67307 25.35118,-11.97737 4.3319,-0.66118 8.7066,-0.94999 13.0589,-1.45162 4.8043,-0.2428 9.6151,0.0104 14.4194,0.17063 5.8134,0.33424 11.8267,0.48281 17.2958,2.68271 1.9546,1.04421 4.8631,2.69905 3.9946,5.48696 -0.1732,0.55596 -1.5289,1.89181 -1.8941,2.27719 -2.3592,2.05624 -3.6905,5.05978 -5.7859,7.38391 -2.3963,3.70072 -5.0933,7.21321 -7.9231,10.59146 -6.1469,7.35428 -1.2197,1.83121 -20.5474,13.24535 -1.9821,1.17053 -3.8577,0.66332 -4.5076,-1.61937 0.1102,-3.42876 -0,-6.86204 0.1743,-10.28995 0.2671,-3.56654 0.763,-7.10645 1.6041,-10.58709 0.6432,-2.97702 1.2059,-5.99934 1.0862,-9.05507 0.032,-3.97317 0.091,-7.94602 0.1263,-11.91915 0.018,-4.54742 0.018,-9.10048 -0.219,-13.6427 0,0 18.6936,-9.5249 18.6936,-9.5249 z"
       inkscape:connector-curvature="0" />
    <path
       style="fill:#000000;fill-opacity:1;stroke:#000000;stroke-width:1;stroke-miterlimit:4;stroke-opacity:1;stroke-dasharray:none"
       id="path4750"
       d="m 1030.4803,256.30348 c 0.9926,4.73727 1.607,9.53578 2.0874,14.34795 0.3229,4.58512 1.0817,9.11755 1.5056,13.69503 0.3727,4.61353 0.3718,9.24297 0.3765,13.86785 0.01,4.84777 0.011,9.69567 0.038,14.54339 0.2512,3.30215 -0.1336,6.53227 -0.6714,9.77742 -0.3913,2.49601 -0.5944,5.02416 -0.5719,7.55066 0.023,0.0986 0.083,0.39606 0.069,0.29586 -1.0859,-7.48132 -5.1165,1.87556 -17.8327,8.42375 -0.4196,0.21609 0.8214,-0.46934 1.2022,-0.74822 1.0848,-0.79453 1.8008,-1.56645 2.7706,-2.512 2.7655,-2.96175 5.0979,-6.29939 7.342,-9.66434 1.7948,-2.55972 3.0365,-5.41537 4.4203,-8.19823 1.237,-2.26381 1.4334,-4.8104 1.8062,-7.30685 0.8562,-3.29214 -0.3214,-3.71906 -3.2442,-4.71512 -3.8963,-1.00281 -7.9641,-0.98259 -11.9611,-1.05625 -3.9277,-0.31737 -7.7589,0.50705 -11.6256,1.02564 -2.9889,0.53579 -6.0728,0.13509 -9.03383,0.74529 -1.97596,0.41114 -0.8165,0.0489 -2.52473,0.84678 -0.36749,0.17165 -1.46468,0.69375 -1.11314,0.49144 32.4058,-18.65035 20.2915,-12.55985 14.99,-8.17032 -1.805,1.58345 -3.5695,3.26002 -5.0252,5.17614 -0.1335,0.30756 -0.4331,0.71996 -0.2263,1.09621 0.9483,1.72464 3.3082,3.02067 4.8148,4.15273 3.7565,3.24966 7.8379,6.07182 11.8,9.05017 2.9142,2.1574 5.0519,5.04887 6.848,8.15534 0,0 -18.0026,10.38427 -18.0026,10.38427 l 0,0 c -1.6287,-2.88092 -3.6224,-5.52436 -6.2849,-7.5377 -3.88782,-3.05641 -7.88314,-5.98019 -11.78663,-9.01689 -2.52117,-1.84563 -6.4735,-4.01991 -6.23399,-7.60007 0.62108,-2.01403 0.83238,-1.60226 2.06792,-2.96975 0.90596,-1.00272 1.41672,-2.35077 2.7426,-2.97558 6.46977,-6.83523 15.2918,-12.08296 24.5994,-13.53375 3.003,-0.20209 6.0183,-0.27605 9.0006,-0.71989 3.8742,-0.51838 7.744,-0.94178 11.6627,-0.65799 4.2048,0.097 8.516,0.14443 12.5253,1.56313 3.064,1.36896 5.8234,3.39803 4.746,7.14632 -0.5803,2.59201 -0.3958,5.35113 -1.5533,7.81647 -1.3913,2.88726 -2.7589,5.77783 -4.4451,8.51512 -2.2906,3.41318 -4.5859,6.84276 -7.2488,9.98093 -5.1422,6.12788 -20.3181,21.90666 -23.9362,11.96769 0.159,-2.61219 0.1135,-5.24155 0.5161,-7.83568 0.5078,-3.19486 1.3479,-6.31923 1.044,-9.59288 0.036,-4.85543 0.058,-9.71131 0.036,-14.5668 -0.044,-4.56181 -0.085,-9.12789 -0.3815,-13.6817 -0.354,-4.59405 -1.1402,-9.13674 -1.4054,-13.73617 -0.3728,-4.6933 -0.806,-9.46689 -2.4004,-13.92954 0,0 18.4979,-9.88986 18.4979,-9.88986 z"
       inkscape:connector-curvature="0" />
  </g>
</svg>
